{"glyphs":{"0":{"ha":858,"x_min":0,"x_max":0,"o":"m 210 521 b 429 893 210 725 296 893 l 311 1042 b 28 521 142 975 28 767 b 429 -22 28 221 197 -22 b 831 521 661 -22 831 221 b 429 1064 831 821 663 1064 l 429 893 b 649 521 563 893 649 725 b 429 149 649 317 561 149 b 210 521 297 149 210 317 z "},"1":{"ha":606,"x_min":0,"x_max":0,"o":"m 578 0 l 578 174 l 394 174 l 394 1042 l 215 1042 l 28 849 l 28 611 l 211 797 l 211 174 l 28 174 l 28 0 z "},"2":{"ha":825,"x_min":0,"x_max":0,"o":"m 400 1064 b 28 843 243 1064 94 978 l 174 715 b 399 893 194 817 288 893 b 614 682 522 893 614 811 b 385 442 614 556 528 482 b 28 167 186 386 68 304 l 28 0 l 764 0 l 764 174 l 243 174 b 425 282 258 219 310 249 b 797 681 649 347 797 468 b 400 1064 797 913 618 1064 z "},"3":{"ha":853,"x_min":0,"x_max":0,"o":"m 485 868 l 183 574 l 417 574 b 629 363 539 574 629 485 b 413 149 629 233 536 149 b 188 326 301 149 208 225 l 42 199 b 413 -22 108 64 256 -22 b 811 361 632 -22 811 140 b 568 718 811 533 711 665 l 718 868 l 718 1042 l 110 1042 l 110 868 z "},"4":{"ha":835,"x_min":0,"x_max":0,"o":"m 807 329 l 807 501 l 653 501 l 653 1042 l 458 1042 l 28 501 l 28 329 l 472 329 l 472 0 l 653 0 l 653 329 z m 226 501 l 475 810 l 475 501 z "},"5":{"ha":825,"x_min":0,"x_max":0,"o":"m 28 744 l 28 574 l 393 574 b 615 363 521 574 615 489 b 399 149 615 233 522 149 b 174 326 288 149 194 225 l 28 199 b 399 -22 94 64 242 -22 b 797 361 618 -22 797 140 b 404 746 797 590 624 746 l 211 746 l 279 868 l 706 868 l 706 1042 l 175 1042 z "},"6":{"ha":860,"x_min":0,"x_max":0,"o":"m 96 601 b 28 378 54 536 28 461 b 428 -22 28 153 210 -22 b 832 378 651 -22 832 153 b 428 775 832 603 647 775 b 404 774 421 775 411 775 l 583 1042 l 381 1042 z m 207 379 b 428 606 207 504 300 606 b 650 379 557 606 650 504 b 428 149 650 250 558 149 b 207 379 300 149 207 251 z "},"7":{"ha":817,"x_min":0,"x_max":0,"o":"m 110 1042 l 110 868 l 582 868 l 28 0 l 242 0 l 789 868 l 789 1042 z "},"8":{"ha":707,"x_min":0,"x_max":0,"o":"m 28 300 b 354 -22 28 119 179 -22 b 679 300 529 -22 679 119 b 569 536 679 396 636 479 b 664 757 626 592 664 668 b 354 1064 664 931 522 1064 b 43 757 186 1064 43 931 b 138 536 43 668 79 592 b 28 300 71 479 28 396 z m 354 447 b 497 300 439 447 497 382 b 354 154 497 218 436 154 b 210 300 271 154 210 218 b 354 447 210 382 269 447 z m 354 618 b 219 757 278 618 219 683 b 354 893 219 831 279 893 b 488 757 428 893 488 831 b 354 618 488 683 431 618 z "},"9":{"ha":860,"x_min":0,"x_max":0,"o":"m 764 440 b 832 664 806 506 832 581 b 432 1064 832 889 650 1064 b 28 664 208 1064 28 889 b 432 267 28 439 213 267 b 456 268 439 267 449 267 l 276 0 l 479 0 z m 653 663 b 432 436 653 538 560 436 b 210 663 303 436 210 538 b 432 893 210 792 301 893 b 653 663 560 893 653 790 z "}," ":{"ha":694,"x_min":0,"x_max":0,"o":""}," ":{"ha":833,"x_min":0,"x_max":0,"o":""},"­":{"ha":479,"x_min":0,"x_max":0,"o":"m 28 435 l 451 435 l 451 608 l 28 608 z "},"A":{"ha":1133,"x_min":0,"x_max":0,"o":"m 663 1042 l 471 1042 l 28 0 l 213 0 l 769 336 l 913 0 l 1106 0 z m 565 817 l 699 504 l 324 256 z "},"B":{"ha":728,"x_min":0,"x_max":0,"o":"m 28 0 l 368 0 b 700 303 546 0 700 115 b 599 519 700 396 660 469 b 700 739 663 569 700 643 b 368 1042 700 926 546 1042 l 28 1042 z m 517 303 b 372 174 517 217 451 174 l 211 174 l 211 435 l 372 435 b 517 303 451 435 517 389 z m 517 739 b 372 608 517 653 451 608 l 211 608 l 211 868 l 372 868 b 517 739 451 868 517 825 z "},"C":{"ha":1035,"x_min":0,"x_max":0,"o":"m 571 150 b 203 521 361 150 203 311 b 571 893 203 731 361 893 b 879 715 710 893 818 824 l 1007 843 b 571 1064 908 979 753 1064 b 28 521 271 1064 28 828 b 571 -22 28 214 271 -22 b 1007 199 750 -22 908 64 l 879 326 b 571 150 818 218 710 150 z "},"D":{"ha":922,"x_min":0,"x_max":0,"o":"m 28 0 l 350 0 b 894 521 649 0 894 217 b 350 1042 894 825 649 1042 l 28 1042 z m 211 174 l 211 868 l 350 868 b 711 521 563 868 711 732 b 350 174 711 310 563 172 z "},"E":{"ha":706,"x_min":0,"x_max":0,"o":"m 28 0 l 678 0 l 678 174 l 211 174 l 211 435 l 678 435 l 678 608 l 211 608 l 211 868 l 678 868 l 678 1042 l 28 1042 z "},"F":{"ha":706,"x_min":0,"x_max":0,"o":"m 28 0 l 211 0 l 211 435 l 678 435 l 678 608 l 211 608 l 211 868 l 678 868 l 678 1042 l 28 1042 z "},"G":{"ha":1088,"x_min":0,"x_max":0,"o":"m 571 -22 b 878 79 683 -22 790 17 l 878 0 l 1060 0 l 1060 521 l 571 521 l 571 350 l 881 350 l 881 326 b 571 150 829 217 710 150 b 203 521 361 150 203 311 b 571 893 203 731 361 893 b 879 715 710 893 818 824 l 1007 843 b 571 1064 908 979 753 1064 b 28 521 271 1064 28 828 b 571 -22 28 214 271 -22 z "},"H":{"ha":789,"x_min":0,"x_max":0,"o":"m 578 608 l 211 608 l 211 1042 l 28 1042 l 28 0 l 211 0 l 211 435 l 578 435 l 578 0 l 761 0 l 761 1042 l 578 1042 z "},"I":{"ha":239,"x_min":0,"x_max":0,"o":"m 28 0 l 211 0 l 211 1042 l 28 1042 z "},"J":{"ha":422,"x_min":0,"x_max":0,"o":"m 394 1042 l 211 1042 l 211 342 b 28 174 211 231 142 167 l 28 0 b 394 350 249 -7 394 140 z "},"K":{"ha":936,"x_min":0,"x_max":0,"o":"m 211 661 l 211 1042 l 28 1042 l 28 0 l 211 0 l 211 381 l 908 0 l 908 204 l 307 521 l 908 838 l 908 1042 z "},"L":{"ha":872,"x_min":0,"x_max":0,"o":"m 844 0 l 844 174 l 218 174 l 597 1042 l 396 1042 l 28 174 l 28 0 z "},"M":{"ha":911,"x_min":0,"x_max":0,"o":"m 325 1042 l 28 1042 l 28 0 l 207 0 l 207 767 l 378 0 l 533 0 l 704 767 l 704 0 l 883 0 l 883 1042 l 586 1042 l 456 407 z "},"N":{"ha":817,"x_min":0,"x_max":0,"o":"m 608 339 l 226 1042 l 28 1042 l 28 0 l 208 0 l 208 701 l 592 0 l 789 0 l 789 1042 l 608 1042 z "},"O":{"ha":1142,"x_min":0,"x_max":0,"o":"m 28 521 b 571 -22 28 214 271 -22 b 1114 521 871 -22 1114 214 b 571 1064 1114 828 871 1064 b 28 521 271 1064 28 828 z m 201 521 b 571 893 201 731 365 893 b 942 521 776 893 942 731 b 571 150 942 311 776 150 b 201 521 365 150 201 311 z "},"P":{"ha":840,"x_min":0,"x_max":0,"o":"m 481 435 b 813 739 658 435 813 551 b 481 1042 813 926 658 1042 l 28 1042 l 28 0 l 211 0 l 211 435 z m 629 739 b 485 608 629 656 564 608 l 211 608 l 211 868 l 485 868 b 629 739 564 868 629 825 z "},"Q":{"ha":1142,"x_min":0,"x_max":0,"o":"m 28 521 b 571 -22 28 214 271 -22 b 929 111 708 -22 833 28 l 1114 0 l 1114 200 l 1040 244 b 1114 521 1086 325 1114 418 b 571 1064 1114 828 871 1064 b 28 521 271 1064 28 828 z m 201 521 b 571 893 201 731 365 893 b 942 521 776 893 942 731 b 893 335 942 453 924 389 l 481 589 l 481 382 l 771 207 b 571 150 713 171 644 150 b 201 521 365 150 201 311 z "},"R":{"ha":813,"x_min":0,"x_max":0,"o":"m 785 -1 l 785 200 l 228 440 l 453 440 b 785 742 631 440 785 554 b 453 1042 785 929 631 1042 l 28 1042 l 28 0 l 211 0 l 211 256 z m 601 742 b 457 614 601 657 536 614 l 211 614 l 211 868 l 457 868 b 601 742 536 868 601 828 z "},"S":{"ha":714,"x_min":0,"x_max":0,"o":"m 357 888 b 550 717 446 888 511 794 l 683 844 b 360 1063 632 956 496 1063 b 40 758 172 1063 40 932 b 324 432 40 571 200 494 b 500 279 419 383 500 347 b 361 156 500 199 438 156 b 160 326 272 156 197 247 l 28 199 b 358 -21 79 86 222 -21 b 686 283 551 -21 686 103 b 424 590 686 457 546 531 b 224 760 321 640 224 683 b 357 888 224 839 282 888 z "},"T":{"ha":789,"x_min":0,"x_max":0,"o":"m 28 868 l 303 868 l 303 0 l 486 0 l 486 868 l 761 868 l 761 1042 l 28 1042 z "},"U":{"ha":789,"x_min":0,"x_max":0,"o":"m 761 1042 l 578 1042 l 578 329 b 394 149 578 222 500 149 b 211 329 289 149 211 222 l 211 1042 l 28 1042 l 28 332 b 394 -22 28 122 192 -22 b 761 332 597 -22 761 122 z "},"V":{"ha":890,"x_min":0,"x_max":0,"o":"m 349 0 l 540 0 l 863 1042 l 669 1042 l 444 267 l 221 1042 l 28 1042 z "},"W":{"ha":1379,"x_min":0,"x_max":0,"o":"m 1351 1042 l 1153 1042 l 858 279 l 799 608 l 581 608 l 521 279 l 226 1042 l 28 1042 l 449 0 l 632 0 l 689 288 l 747 0 l 931 0 z "},"X":{"ha":690,"x_min":0,"x_max":0,"o":"m 344 294 l 471 0 l 663 0 l 442 521 l 663 1042 l 469 1042 l 344 749 l 221 1042 l 28 1042 l 249 521 l 28 0 l 219 0 z "},"Y":{"ha":751,"x_min":0,"x_max":0,"o":"m 724 1042 l 528 1042 l 383 650 l 231 1042 l 28 1042 l 471 0 l 663 0 l 478 435 z "},"Z":{"ha":690,"x_min":0,"x_max":0,"o":"m 663 0 l 663 174 l 224 174 l 663 868 l 663 1042 l 36 1042 l 36 868 l 464 868 l 28 174 l 28 0 z "},"Æ":{"ha":1292,"x_min":0,"x_max":0,"o":"m 863 575 l 736 868 l 1264 868 l 1264 1042 l 471 1042 l 28 0 l 213 0 l 772 326 l 910 0 l 1264 0 l 1264 174 l 1035 174 l 929 418 l 1264 614 l 1264 814 z m 565 817 l 706 482 l 324 256 z "},"Ð":{"ha":922,"x_min":0,"x_max":0,"o":"m 28 433 l 83 433 l 83 0 l 350 0 b 894 521 649 0 894 217 b 350 1042 894 825 649 1042 l 83 1042 l 83 607 l 28 607 z m 267 174 l 267 433 l 494 433 l 494 607 l 267 607 l 267 868 l 350 868 b 711 521 563 868 711 732 b 350 174 711 310 563 172 z "},"Œ":{"ha":1444,"x_min":0,"x_max":0,"o":"m 28 521 b 571 -22 28 214 271 -22 b 726 0 625 -22 676 -14 l 1417 0 l 1417 174 l 990 174 b 1107 435 1050 246 1092 335 l 1417 435 l 1417 608 l 1107 608 b 990 868 1092 707 1050 796 l 1417 868 l 1417 1042 l 726 1042 b 571 1064 676 1056 625 1064 b 28 521 271 1064 28 828 z m 201 521 b 571 893 201 731 365 893 b 942 521 776 893 942 731 b 571 150 942 311 776 150 b 201 521 365 150 201 311 z "},"Ø":{"ha":1142,"x_min":0,"x_max":0,"o":"m 28 521 b 169 151 28 376 82 247 l 28 -22 l 222 -22 l 286 56 b 571 -22 369 6 467 -22 b 1114 521 871 -22 1114 214 b 971 890 1114 665 1060 794 l 1113 1064 l 918 1064 l 854 985 b 571 1064 771 1035 675 1064 b 28 521 271 1064 28 828 z m 571 150 b 397 192 508 150 449 164 l 860 756 b 942 521 911 692 942 611 b 571 150 942 311 776 150 z m 201 521 b 571 893 201 731 365 893 b 743 851 633 893 692 878 l 281 288 b 201 521 231 350 201 431 z "},"Þ":{"ha":840,"x_min":0,"x_max":0,"o":"m 28 0 l 211 0 l 211 218 l 481 218 b 813 522 658 218 813 335 b 481 825 813 710 658 825 l 211 825 l 211 1042 l 28 1042 z m 629 522 b 485 392 629 439 564 392 l 211 392 l 211 651 l 485 651 b 629 522 564 651 629 608 z "},"À":{"ha":1133,"x_min":0,"x_max":0,"o":"m 663 1042 l 471 1042 l 28 0 l 213 0 l 769 336 l 913 0 l 1106 0 z m 565 817 l 699 504 l 324 256 z m 431 1097 l 656 1097 l 289 1346 l 289 1181 z "},"Á":{"ha":1133,"x_min":0,"x_max":0,"o":"m 1106 0 l 913 0 l 769 336 l 213 0 l 28 0 l 471 1042 l 663 1042 z m 324 256 l 699 504 l 565 817 z m 850 1181 l 850 1346 l 483 1097 l 708 1097 z "},"Â":{"ha":1133,"x_min":0,"x_max":0,"o":"m 663 1042 l 471 1042 l 28 0 l 213 0 l 769 336 l 913 0 l 1106 0 z m 565 817 l 699 504 l 324 256 z m 567 1201 l 771 1068 l 771 1221 l 642 1310 l 490 1310 l 361 1221 l 361 1068 z "},"Ã":{"ha":1133,"x_min":0,"x_max":0,"o":"m 1106 0 l 913 0 l 769 336 l 213 0 l 28 0 l 471 1042 l 663 1042 z m 324 256 l 699 504 l 565 817 z m 665 1090 b 771 1135 707 1090 742 1106 l 771 1278 b 668 1219 750 1250 725 1219 b 467 1282 614 1219 533 1282 b 361 1238 425 1282 390 1267 l 361 1094 b 464 1153 382 1122 407 1153 b 665 1090 517 1153 599 1090 z "},"Ä":{"ha":1133,"x_min":0,"x_max":0,"o":"m 1106 0 l 913 0 l 769 336 l 213 0 l 28 0 l 471 1042 l 663 1042 z m 324 256 l 699 504 l 565 817 z m 522 1300 l 383 1300 l 340 1169 l 453 1089 l 567 1169 z m 749 1300 l 610 1300 l 567 1169 l 679 1089 l 793 1169 z "},"Ā":{"ha":1133,"x_min":0,"x_max":0,"o":"m 1106 0 l 913 0 l 769 336 l 213 0 l 28 0 l 471 1042 l 663 1042 z m 324 256 l 699 504 l 565 817 z m 361 1126 l 771 1126 l 771 1258 l 361 1258 z "},"Ă":{"ha":1133,"x_min":0,"x_max":0,"o":"m 663 1042 l 471 1042 l 28 0 l 213 0 l 769 336 l 913 0 l 1106 0 z m 565 817 l 699 504 l 324 256 z m 565 1214 b 490 1292 522 1214 494 1246 l 354 1292 b 565 1089 358 1165 446 1089 b 778 1292 685 1089 774 1165 l 642 1292 b 565 1214 638 1246 608 1214 z "},"Å":{"ha":1133,"x_min":0,"x_max":0,"o":"m 663 1042 l 471 1042 l 28 0 l 213 0 l 769 336 l 913 0 l 1106 0 z m 565 817 l 699 504 l 324 256 z m 413 1228 b 567 1074 413 1143 482 1074 b 721 1228 651 1074 721 1143 b 567 1382 721 1313 651 1382 b 413 1228 482 1382 413 1313 z m 513 1228 b 567 1282 513 1258 536 1282 b 621 1228 597 1282 621 1258 b 567 1174 621 1197 597 1174 b 513 1228 536 1174 513 1197 z "},"Ǻ":{"ha":1133,"x_min":0,"x_max":0,"o":"m 1106 0 l 913 0 l 769 336 l 213 0 l 28 0 l 471 1042 l 663 1042 z m 324 256 l 699 504 l 565 817 z m 413 1228 b 567 1382 413 1313 482 1382 b 721 1228 651 1382 721 1313 b 567 1074 721 1143 651 1074 b 413 1228 482 1074 413 1143 z m 513 1228 b 567 1174 513 1197 536 1174 b 621 1228 597 1174 621 1197 b 567 1282 621 1258 597 1282 b 513 1228 536 1282 513 1258 z m 819 1499 l 819 1664 l 453 1415 l 678 1415 z "},"Ą":{"ha":1133,"x_min":0,"x_max":0,"o":"m 1151 -151 b 1103 -175 1135 -165 1119 -175 b 1075 -146 1085 -175 1075 -164 l 1075 0 l 1106 0 l 663 1042 l 471 1042 l 28 0 l 213 0 l 769 336 l 913 0 l 931 0 l 931 -165 b 1086 -321 931 -267 986 -321 b 1221 -271 1138 -321 1182 -303 z m 565 817 l 699 504 l 324 256 z "},"Ǽ":{"ha":1292,"x_min":0,"x_max":0,"o":"m 1264 814 l 1264 614 l 929 418 l 1035 174 l 1264 174 l 1264 0 l 910 0 l 772 326 l 213 0 l 28 0 l 471 1042 l 1264 1042 l 1264 868 l 736 868 l 863 575 z m 324 256 l 706 482 l 565 817 z m 1065 1181 l 1065 1346 l 699 1097 l 924 1097 z "},"Ć":{"ha":1035,"x_min":0,"x_max":0,"o":"m 571 150 b 203 521 361 150 203 311 b 571 893 203 731 361 893 b 879 715 710 893 818 824 l 1007 843 b 571 1064 908 979 753 1064 b 28 521 271 1064 28 828 b 571 -22 28 214 271 -22 b 1007 199 750 -22 908 64 l 879 326 b 571 150 818 218 710 150 z m 839 1181 l 839 1346 l 472 1097 l 697 1097 z "},"Ĉ":{"ha":1035,"x_min":0,"x_max":0,"o":"m 571 150 b 203 521 361 150 203 311 b 571 893 203 731 361 893 b 879 715 710 893 818 824 l 1007 843 b 571 1064 908 979 753 1064 b 28 521 271 1064 28 828 b 571 -22 28 214 271 -22 b 1007 199 750 -22 908 64 l 879 326 b 571 150 818 218 710 150 z m 560 1201 l 764 1068 l 764 1221 l 635 1310 l 483 1310 l 354 1221 l 354 1068 z "},"Č":{"ha":1035,"x_min":0,"x_max":0,"o":"m 571 150 b 203 521 361 150 203 311 b 571 893 203 731 361 893 b 879 715 710 893 818 824 l 1007 843 b 571 1064 908 979 753 1064 b 28 521 271 1064 28 828 b 571 -22 28 214 271 -22 b 1007 199 750 -22 908 64 l 879 326 b 571 150 818 218 710 150 z m 368 1339 l 368 1186 l 497 1097 l 649 1097 l 778 1186 l 778 1339 l 574 1206 z "},"Ċ":{"ha":1035,"x_min":0,"x_max":0,"o":"m 571 150 b 203 521 361 150 203 311 b 571 893 203 731 361 893 b 879 715 710 893 818 824 l 1007 843 b 571 1064 908 979 753 1064 b 28 521 271 1064 28 828 b 571 -22 28 214 271 -22 b 1007 199 750 -22 908 64 l 879 326 b 571 150 818 218 710 150 z m 642 1300 l 503 1300 l 460 1169 l 572 1089 l 686 1169 z "},"Ç":{"ha":1035,"x_min":0,"x_max":0,"o":"m 422 -299 b 553 -328 451 -315 501 -328 b 722 -174 639 -328 722 -276 b 624 -47 722 -101 671 -58 l 624 -19 b 1007 199 781 -4 918 76 l 879 326 b 571 150 818 218 710 150 b 203 521 361 150 203 311 b 571 893 203 731 361 893 b 879 715 710 893 818 824 l 1007 843 b 571 1064 908 979 753 1064 b 28 521 271 1064 28 828 b 492 -17 28 242 229 21 l 492 -128 b 582 -165 554 -121 582 -137 b 538 -201 582 -189 563 -201 b 461 -171 496 -201 461 -171 z "},"Ď":{"ha":922,"x_min":0,"x_max":0,"o":"m 28 0 l 350 0 b 894 521 649 0 894 217 b 350 1042 894 825 649 1042 l 28 1042 z m 211 174 l 211 868 l 350 868 b 711 521 563 868 711 732 b 350 174 711 310 563 172 z m 144 1339 l 144 1186 l 274 1097 l 425 1097 l 554 1186 l 554 1339 l 350 1206 z "},"Đ":{"ha":922,"x_min":0,"x_max":0,"o":"m 28 433 l 83 433 l 83 0 l 350 0 b 894 521 649 0 894 217 b 350 1042 894 825 649 1042 l 83 1042 l 83 607 l 28 607 z m 267 174 l 267 433 l 494 433 l 494 607 l 267 607 l 267 868 l 350 868 b 711 521 563 868 711 732 b 350 174 711 310 563 172 z "},"È":{"ha":706,"x_min":0,"x_max":0,"o":"m 28 0 l 678 0 l 678 174 l 211 174 l 211 435 l 678 435 l 678 608 l 211 608 l 211 868 l 678 868 l 678 1042 l 28 1042 z m 297 1097 l 522 1097 l 156 1346 l 156 1181 z "},"É":{"ha":706,"x_min":0,"x_max":0,"o":"m 28 1042 l 678 1042 l 678 868 l 211 868 l 211 608 l 678 608 l 678 435 l 211 435 l 211 174 l 678 174 l 678 0 l 28 0 z m 564 1181 l 564 1346 l 197 1097 l 422 1097 z "},"Ê":{"ha":706,"x_min":0,"x_max":0,"o":"m 28 0 l 678 0 l 678 174 l 211 174 l 211 435 l 678 435 l 678 608 l 211 608 l 211 868 l 678 868 l 678 1042 l 28 1042 z m 353 1201 l 557 1068 l 557 1221 l 428 1310 l 276 1310 l 147 1221 l 147 1068 z "},"Ě":{"ha":706,"x_min":0,"x_max":0,"o":"m 28 0 l 678 0 l 678 174 l 211 174 l 211 435 l 678 435 l 678 608 l 211 608 l 211 868 l 678 868 l 678 1042 l 28 1042 z m 147 1339 l 147 1186 l 276 1097 l 428 1097 l 557 1186 l 557 1339 l 353 1206 z "},"Ë":{"ha":706,"x_min":0,"x_max":0,"o":"m 28 1042 l 678 1042 l 678 868 l 211 868 l 211 608 l 678 608 l 678 435 l 211 435 l 211 174 l 678 174 l 678 0 l 28 0 z m 536 1300 l 397 1300 l 354 1169 l 467 1089 l 581 1169 z m 310 1300 l 171 1300 l 128 1169 l 240 1089 l 354 1169 z "},"Ē":{"ha":706,"x_min":0,"x_max":0,"o":"m 28 1042 l 678 1042 l 678 868 l 211 868 l 211 608 l 678 608 l 678 435 l 211 435 l 211 174 l 678 174 l 678 0 l 28 0 z m 147 1126 l 557 1126 l 557 1258 l 147 1258 z "},"Ĕ":{"ha":706,"x_min":0,"x_max":0,"o":"m 28 0 l 678 0 l 678 174 l 211 174 l 211 435 l 678 435 l 678 608 l 211 608 l 211 868 l 678 868 l 678 1042 l 28 1042 z m 351 1214 b 276 1292 308 1214 281 1246 l 140 1292 b 351 1089 144 1165 232 1089 b 564 1292 471 1089 560 1165 l 428 1292 b 351 1214 424 1246 394 1214 z "},"Ė":{"ha":706,"x_min":0,"x_max":0,"o":"m 28 1042 l 678 1042 l 678 868 l 211 868 l 211 608 l 678 608 l 678 435 l 211 435 l 211 174 l 678 174 l 678 0 l 28 0 z m 421 1300 l 282 1300 l 239 1169 l 351 1089 l 465 1169 z "},"Ę":{"ha":706,"x_min":0,"x_max":0,"o":"m 608 -151 b 560 -175 592 -165 576 -175 b 532 -146 542 -175 532 -164 l 532 0 l 678 0 l 678 174 l 211 174 l 211 435 l 678 435 l 678 608 l 211 608 l 211 868 l 678 868 l 678 1042 l 28 1042 l 28 0 l 388 0 l 388 -165 b 543 -321 388 -267 443 -321 b 678 -271 594 -321 639 -303 z "},"Ĝ":{"ha":1088,"x_min":0,"x_max":0,"o":"m 571 -22 b 878 79 683 -22 790 17 l 878 0 l 1060 0 l 1060 521 l 571 521 l 571 350 l 881 350 l 881 326 b 571 150 829 217 710 150 b 203 521 361 150 203 311 b 571 893 203 731 361 893 b 879 715 710 893 818 824 l 1007 843 b 571 1064 908 979 753 1064 b 28 521 271 1064 28 828 b 571 -22 28 214 271 -22 z m 544 1201 l 749 1068 l 749 1221 l 619 1310 l 468 1310 l 339 1221 l 339 1068 z "},"Ğ":{"ha":1088,"x_min":0,"x_max":0,"o":"m 571 -22 b 878 79 683 -22 790 17 l 878 0 l 1060 0 l 1060 521 l 571 521 l 571 350 l 881 350 l 881 326 b 571 150 829 217 710 150 b 203 521 361 150 203 311 b 571 893 203 731 361 893 b 879 715 710 893 818 824 l 1007 843 b 571 1064 908 979 753 1064 b 28 521 271 1064 28 828 b 571 -22 28 214 271 -22 z m 543 1214 b 468 1292 500 1214 472 1246 l 332 1292 b 543 1089 336 1165 424 1089 b 756 1292 663 1089 751 1165 l 619 1292 b 543 1214 615 1246 586 1214 z "},"Ġ":{"ha":1088,"x_min":0,"x_max":0,"o":"m 571 -22 b 28 521 271 -22 28 214 b 571 1064 28 828 271 1064 b 1007 843 753 1064 908 979 l 879 715 b 571 893 818 824 710 893 b 203 521 361 893 203 731 b 571 150 203 311 361 150 b 881 326 710 150 829 217 l 881 350 l 571 350 l 571 521 l 1060 521 l 1060 0 l 878 0 l 878 79 b 571 -22 790 17 683 -22 z m 613 1300 l 474 1300 l 431 1169 l 543 1089 l 657 1169 z "},"Ģ":{"ha":1088,"x_min":0,"x_max":0,"o":"m 571 -22 b 878 79 683 -22 790 17 l 878 0 l 1060 0 l 1060 521 l 571 521 l 571 350 l 881 350 l 881 326 b 571 150 829 217 710 150 b 203 521 361 150 203 311 b 571 893 203 731 361 893 b 879 715 710 893 818 824 l 1007 843 b 571 1064 908 979 753 1064 b 28 521 271 1064 28 828 b 571 -22 28 214 271 -22 z m 551 -276 b 488 -329 549 -324 515 -329 l 488 -396 b 636 -276 574 -396 614 -361 l 672 -146 l 558 -62 l 443 -146 l 488 -276 z "},"Ĥ":{"ha":789,"x_min":0,"x_max":0,"o":"m 578 608 l 211 608 l 211 1042 l 28 1042 l 28 0 l 211 0 l 211 435 l 578 435 l 578 0 l 761 0 l 761 1042 l 578 1042 z m 394 1201 l 599 1068 l 599 1221 l 469 1310 l 318 1310 l 189 1221 l 189 1068 z "},"Ħ":{"ha":789,"x_min":0,"x_max":0,"o":"m -61 751 l 28 751 l 28 0 l 211 0 l 211 435 l 578 435 l 578 0 l 761 0 l 761 751 l 849 751 l 849 883 l 761 883 l 761 1042 l 578 1042 l 578 883 l 211 883 l 211 1042 l 28 1042 l 28 883 l -61 883 z m 211 608 l 211 751 l 578 751 l 578 608 z "},"Ì":{"ha":239,"x_min":0,"x_max":0,"o":"m 28 0 l 211 0 l 211 1042 l 28 1042 z m -6 1097 l 219 1097 l -147 1346 l -147 1181 z "},"Í":{"ha":239,"x_min":0,"x_max":0,"o":"m 28 1042 l 211 1042 l 211 0 l 28 0 z m 394 1181 l 394 1346 l 28 1097 l 253 1097 z "},"Î":{"ha":239,"x_min":0,"x_max":0,"o":"m 28 0 l 211 0 l 211 1042 l 28 1042 z m 121 1201 l 325 1068 l 325 1221 l 196 1310 l 44 1310 l -85 1221 l -85 1068 z "},"Ĩ":{"ha":239,"x_min":0,"x_max":0,"o":"m 28 1042 l 211 1042 l 211 0 l 28 0 z m 219 1090 b 325 1135 261 1090 296 1106 l 325 1278 b 222 1219 304 1250 279 1219 b 21 1282 168 1219 88 1282 b -85 1238 -21 1282 -56 1267 l -85 1094 b 18 1153 -64 1122 -39 1153 b 219 1090 71 1153 153 1090 z "},"Ï":{"ha":239,"x_min":0,"x_max":0,"o":"m 28 1042 l 211 1042 l 211 0 l 28 0 z m 301 1300 l 163 1300 l 119 1169 l 232 1089 l 346 1169 z m 75 1300 l -64 1300 l -107 1169 l 6 1089 l 119 1169 z "},"Ī":{"ha":239,"x_min":0,"x_max":0,"o":"m 28 1042 l 211 1042 l 211 0 l 28 0 z m -85 1126 l 325 1126 l 325 1258 l -85 1258 z "},"Ĭ":{"ha":239,"x_min":0,"x_max":0,"o":"m 28 0 l 211 0 l 211 1042 l 28 1042 z m 119 1214 b 44 1292 76 1214 49 1246 l -92 1292 b 119 1089 -87 1165 0 1089 b 332 1292 239 1089 328 1165 l 196 1292 b 119 1214 192 1246 163 1214 z "},"İ":{"ha":239,"x_min":0,"x_max":0,"o":"m 28 1042 l 211 1042 l 211 0 l 28 0 z m 189 1300 l 50 1300 l 7 1169 l 119 1089 l 233 1169 z "},"Į":{"ha":239,"x_min":0,"x_max":0,"o":"m 268 -151 b 219 -175 251 -165 236 -175 b 192 -146 201 -175 192 -164 l 192 0 l 211 0 l 211 1042 l 28 1042 l 28 0 l 47 0 l 47 -165 b 203 -321 47 -267 103 -321 b 338 -271 254 -321 299 -303 z "},"Ĵ":{"ha":422,"x_min":0,"x_max":0,"o":"m 394 1042 l 211 1042 l 211 342 b 28 174 211 231 142 167 l 28 0 b 394 350 249 -7 394 140 z m 192 1201 l 396 1068 l 396 1221 l 267 1310 l 115 1310 l -14 1221 l -14 1068 z "},"Ķ":{"ha":936,"x_min":0,"x_max":0,"o":"m 211 661 l 211 1042 l 28 1042 l 28 0 l 211 0 l 211 381 l 908 0 l 908 204 l 307 521 l 908 838 l 908 1042 z m 461 -276 b 397 -329 458 -324 425 -329 l 397 -396 b 546 -276 483 -396 524 -361 l 582 -146 l 468 -62 l 353 -146 l 397 -276 z "},"Ĺ":{"ha":872,"x_min":0,"x_max":0,"o":"m 28 0 l 28 174 l 396 1042 l 597 1042 l 218 174 l 844 174 l 844 0 z m 781 1181 l 781 1346 l 414 1097 l 639 1097 z "},"Ľ":{"ha":893,"x_min":0,"x_max":0,"o":"m 28 0 l 28 174 l 396 1042 l 597 1042 l 218 174 l 844 174 l 844 0 z m 754 826 b 681 753 750 767 717 753 l 681 679 b 847 844 783 683 811 718 l 886 978 l 760 1069 l 632 978 l 686 826 z "},"Ļ":{"ha":872,"x_min":0,"x_max":0,"o":"m 844 0 l 844 174 l 218 174 l 597 1042 l 396 1042 l 28 174 l 28 0 z m 457 -276 b 393 -329 454 -324 421 -329 l 393 -396 b 542 -276 479 -396 519 -361 l 578 -146 l 464 -62 l 349 -146 l 393 -276 z "},"Ŀ":{"ha":872,"x_min":0,"x_max":0,"o":"m 844 0 l 844 174 l 218 174 l 597 1042 l 396 1042 l 28 174 l 28 0 z m 757 524 l 615 625 l 475 524 l 528 361 l 703 361 z "},"Ł":{"ha":872,"x_min":0,"x_max":0,"o":"m 844 0 l 844 174 l 218 174 l 361 500 l 674 382 l 674 561 l 428 654 l 597 1042 l 396 1042 l 258 718 l 76 788 l 76 608 l 193 564 l 28 174 l 28 0 z "},"Ń":{"ha":817,"x_min":0,"x_max":0,"o":"m 608 1042 l 789 1042 l 789 0 l 592 0 l 208 701 l 208 0 l 28 0 l 28 1042 l 226 1042 l 608 339 z m 647 1181 l 647 1346 l 281 1097 l 506 1097 z "},"Ň":{"ha":817,"x_min":0,"x_max":0,"o":"m 608 339 l 226 1042 l 28 1042 l 28 0 l 208 0 l 208 701 l 592 0 l 789 0 l 789 1042 l 608 1042 z m 203 1339 l 203 1186 l 332 1097 l 483 1097 l 613 1186 l 613 1339 l 408 1206 z "},"Ñ":{"ha":817,"x_min":0,"x_max":0,"o":"m 608 1042 l 789 1042 l 789 0 l 592 0 l 208 701 l 208 0 l 28 0 l 28 1042 l 226 1042 l 608 339 z m 507 1090 b 613 1135 549 1090 583 1106 l 613 1278 b 510 1219 592 1250 567 1219 b 308 1282 456 1219 375 1282 b 203 1238 267 1282 232 1267 l 203 1094 b 306 1153 224 1122 249 1153 b 507 1090 358 1153 440 1090 z "},"Ņ":{"ha":817,"x_min":0,"x_max":0,"o":"m 608 339 l 226 1042 l 28 1042 l 28 0 l 208 0 l 208 701 l 592 0 l 789 0 l 789 1042 l 608 1042 z m 415 -276 b 351 -329 413 -324 379 -329 l 351 -396 b 500 -276 438 -396 478 -361 l 536 -146 l 422 -62 l 307 -146 l 351 -276 z "},"Ò":{"ha":1142,"x_min":0,"x_max":0,"o":"m 28 521 b 571 -22 28 214 271 -22 b 1114 521 871 -22 1114 214 b 571 1064 1114 828 871 1064 b 28 521 271 1064 28 828 z m 201 521 b 571 893 201 731 365 893 b 942 521 776 893 942 731 b 571 150 942 311 776 150 b 201 521 365 150 201 311 z m 474 1097 l 699 1097 l 332 1346 l 332 1181 z "},"Ó":{"ha":1142,"x_min":0,"x_max":0,"o":"m 28 521 b 571 1064 28 828 271 1064 b 1114 521 871 1064 1114 828 b 571 -22 1114 214 871 -22 b 28 521 271 -22 28 214 z m 201 521 b 571 150 201 311 365 150 b 942 521 776 150 942 311 b 571 893 942 731 776 893 b 201 521 365 893 201 731 z m 814 1181 l 814 1346 l 447 1097 l 672 1097 z "},"Ô":{"ha":1142,"x_min":0,"x_max":0,"o":"m 28 521 b 571 -22 28 214 271 -22 b 1114 521 871 -22 1114 214 b 571 1064 1114 828 871 1064 b 28 521 271 1064 28 828 z m 201 521 b 571 893 201 731 365 893 b 942 521 776 893 942 731 b 571 150 942 311 776 150 b 201 521 365 150 201 311 z m 571 1201 l 775 1068 l 775 1221 l 646 1310 l 494 1310 l 365 1221 l 365 1068 z "},"Õ":{"ha":1142,"x_min":0,"x_max":0,"o":"m 28 521 b 571 1064 28 828 271 1064 b 1114 521 871 1064 1114 828 b 571 -22 1114 214 871 -22 b 28 521 271 -22 28 214 z m 201 521 b 571 150 201 311 365 150 b 942 521 776 150 942 311 b 571 893 942 731 776 893 b 201 521 365 893 201 731 z m 669 1090 b 775 1135 711 1090 746 1106 l 775 1278 b 672 1219 754 1250 729 1219 b 471 1282 618 1219 538 1282 b 365 1238 429 1282 394 1267 l 365 1094 b 468 1153 386 1122 411 1153 b 669 1090 521 1153 603 1090 z "},"Ö":{"ha":1142,"x_min":0,"x_max":0,"o":"m 28 521 b 571 1064 28 828 271 1064 b 1114 521 871 1064 1114 828 b 571 -22 1114 214 871 -22 b 28 521 271 -22 28 214 z m 201 521 b 571 150 201 311 365 150 b 942 521 776 150 942 311 b 571 893 942 731 776 893 b 201 521 365 893 201 731 z m 526 1300 l 388 1300 l 344 1169 l 457 1089 l 571 1169 z m 753 1300 l 614 1300 l 571 1169 l 683 1089 l 797 1169 z "},"Ō":{"ha":1142,"x_min":0,"x_max":0,"o":"m 28 521 b 571 1064 28 828 271 1064 b 1114 521 871 1064 1114 828 b 571 -22 1114 214 871 -22 b 28 521 271 -22 28 214 z m 201 521 b 571 150 201 311 365 150 b 942 521 776 150 942 311 b 571 893 942 731 776 893 b 201 521 365 893 201 731 z m 365 1126 l 775 1126 l 775 1258 l 365 1258 z "},"Ŏ":{"ha":1142,"x_min":0,"x_max":0,"o":"m 28 521 b 571 -22 28 214 271 -22 b 1114 521 871 -22 1114 214 b 571 1064 1114 828 871 1064 b 28 521 271 1064 28 828 z m 201 521 b 571 893 201 731 365 893 b 942 521 776 893 942 731 b 571 150 942 311 776 150 b 201 521 365 150 201 311 z m 569 1214 b 494 1292 526 1214 499 1246 l 358 1292 b 569 1089 363 1165 450 1089 b 782 1292 689 1089 778 1165 l 646 1292 b 569 1214 642 1246 613 1214 z "},"Ő":{"ha":1142,"x_min":0,"x_max":0,"o":"m 28 521 b 571 1064 28 828 271 1064 b 1114 521 871 1064 1114 828 b 571 -22 1114 214 871 -22 b 28 521 271 -22 28 214 z m 201 521 b 571 150 201 311 365 150 b 942 521 776 150 942 311 b 571 893 942 731 776 893 b 201 521 365 893 201 731 z m 642 1179 l 642 1338 l 342 1097 l 531 1097 z m 883 1179 l 883 1338 l 578 1097 l 767 1097 z "},"Ǿ":{"ha":1142,"x_min":0,"x_max":0,"o":"m 28 521 b 571 1064 28 828 271 1064 b 854 985 675 1064 771 1035 l 918 1064 l 1113 1064 l 971 890 b 1114 521 1060 794 1114 665 b 571 -22 1114 214 871 -22 b 286 56 467 -22 369 6 l 222 -22 l 28 -22 l 169 151 b 28 521 82 247 28 376 z m 571 150 b 942 521 776 150 942 311 b 860 756 942 611 911 692 l 397 192 b 571 150 449 164 508 150 z m 201 521 b 281 288 201 431 231 350 l 743 851 b 571 893 692 878 633 893 b 201 521 365 893 201 731 z m 810 1181 l 810 1346 l 443 1097 l 668 1097 z "},"Ŕ":{"ha":813,"x_min":0,"x_max":0,"o":"m 785 -1 l 785 200 l 228 440 l 453 440 b 785 742 631 440 785 554 b 453 1042 785 929 631 1042 l 28 1042 l 28 0 l 211 0 l 211 256 z m 601 742 b 457 614 601 657 536 614 l 211 614 l 211 868 l 457 868 b 601 742 536 868 601 828 z m 575 1181 l 575 1346 l 208 1097 l 433 1097 z "},"Ř":{"ha":813,"x_min":0,"x_max":0,"o":"m 785 -1 l 785 200 l 228 440 l 453 440 b 785 742 631 440 785 554 b 453 1042 785 929 631 1042 l 28 1042 l 28 0 l 211 0 l 211 256 z m 601 742 b 457 614 601 657 536 614 l 211 614 l 211 868 l 457 868 b 601 742 536 868 601 828 z m 146 1339 l 146 1186 l 275 1097 l 426 1097 l 556 1186 l 556 1339 l 351 1206 z "},"Ŗ":{"ha":813,"x_min":0,"x_max":0,"o":"m 785 -1 l 785 200 l 228 440 l 453 440 b 785 742 631 440 785 554 b 453 1042 785 929 631 1042 l 28 1042 l 28 0 l 211 0 l 211 256 z m 601 742 b 457 614 601 657 536 614 l 211 614 l 211 868 l 457 868 b 601 742 536 868 601 828 z m 414 -276 b 350 -329 411 -324 378 -329 l 350 -396 b 499 -276 436 -396 476 -361 l 535 -146 l 421 -62 l 306 -146 l 350 -276 z "},"Ś":{"ha":714,"x_min":0,"x_max":0,"o":"m 357 888 b 550 717 446 888 511 794 l 683 844 b 360 1063 632 956 496 1063 b 40 758 172 1063 40 932 b 324 432 40 571 200 494 b 500 279 419 383 500 347 b 361 156 500 199 438 156 b 160 326 272 156 197 247 l 28 199 b 358 -21 79 86 222 -21 b 686 283 551 -21 686 103 b 424 590 686 457 546 531 b 224 760 321 640 224 683 b 357 888 224 839 282 888 z m 610 1181 l 610 1346 l 243 1097 l 468 1097 z "},"Ŝ":{"ha":714,"x_min":0,"x_max":0,"o":"m 357 888 b 550 717 446 888 511 794 l 683 844 b 360 1063 632 956 496 1063 b 40 758 172 1063 40 932 b 324 432 40 571 200 494 b 500 279 419 383 500 347 b 361 156 500 199 438 156 b 160 326 272 156 197 247 l 28 199 b 358 -21 79 86 222 -21 b 686 283 551 -21 686 103 b 424 590 686 457 546 531 b 224 760 321 640 224 683 b 357 888 224 839 282 888 z m 357 1201 l 561 1068 l 561 1221 l 432 1310 l 281 1310 l 151 1221 l 151 1068 z "},"Š":{"ha":714,"x_min":0,"x_max":0,"o":"m 357 888 b 550 717 446 888 511 794 l 683 844 b 360 1063 632 956 496 1063 b 40 758 172 1063 40 932 b 324 432 40 571 200 494 b 500 279 419 383 500 347 b 361 156 500 199 438 156 b 160 326 272 156 197 247 l 28 199 b 358 -21 79 86 222 -21 b 686 283 551 -21 686 103 b 424 590 686 457 546 531 b 224 760 321 640 224 683 b 357 888 224 839 282 888 z m 146 1339 l 146 1186 l 275 1097 l 426 1097 l 556 1186 l 556 1339 l 351 1206 z "},"Ş":{"ha":714,"x_min":0,"x_max":0,"o":"m 231 -299 b 361 -328 260 -315 310 -328 b 531 -174 447 -328 531 -276 b 432 -47 531 -101 479 -58 l 432 -14 b 686 283 585 13 686 126 b 424 590 686 457 546 531 b 224 760 321 640 224 683 b 357 888 224 839 282 888 b 550 717 446 888 511 794 l 683 844 b 360 1063 632 956 496 1063 b 40 758 172 1063 40 932 b 324 432 40 571 200 494 b 500 279 419 383 500 347 b 361 156 500 199 438 156 b 160 326 272 156 197 247 l 28 199 b 300 -14 71 101 183 10 l 300 -128 b 390 -165 363 -121 390 -137 b 346 -201 390 -189 371 -201 b 269 -171 304 -201 269 -171 z "},"Ș":{"ha":714,"x_min":0,"x_max":0,"o":"m 357 888 b 550 717 446 888 511 794 l 683 844 b 360 1063 632 956 496 1063 b 40 758 172 1063 40 932 b 324 432 40 571 200 494 b 500 279 419 383 500 347 b 361 156 500 199 438 156 b 160 326 272 156 197 247 l 28 199 b 358 -21 79 86 222 -21 b 686 283 551 -21 686 103 b 424 590 686 457 546 531 b 224 760 321 640 224 683 b 357 888 224 839 282 888 z m 357 -276 b 293 -329 354 -324 321 -329 l 293 -396 b 442 -276 379 -396 419 -361 l 478 -146 l 364 -62 l 249 -146 l 293 -276 z "},"Ť":{"ha":789,"x_min":0,"x_max":0,"o":"m 28 868 l 303 868 l 303 0 l 486 0 l 486 868 l 761 868 l 761 1042 l 28 1042 z m 192 1339 l 192 1186 l 321 1097 l 472 1097 l 601 1186 l 601 1339 l 397 1206 z "},"Ţ":{"ha":789,"x_min":0,"x_max":0,"o":"m 261 -299 b 392 -328 290 -315 340 -328 b 561 -174 478 -328 561 -276 b 463 -47 561 -101 510 -58 l 463 0 l 486 0 l 486 868 l 761 868 l 761 1042 l 28 1042 l 28 868 l 303 868 l 303 0 l 331 0 l 331 -128 b 421 -165 393 -121 421 -137 b 376 -201 421 -189 401 -201 b 300 -171 335 -201 300 -171 z "},"Ț":{"ha":789,"x_min":0,"x_max":0,"o":"m 28 868 l 303 868 l 303 0 l 486 0 l 486 868 l 761 868 l 761 1042 l 28 1042 z m 390 -276 b 326 -329 388 -324 354 -329 l 326 -396 b 475 -276 413 -396 453 -361 l 511 -146 l 397 -62 l 282 -146 l 326 -276 z "},"Ŧ":{"ha":789,"x_min":0,"x_max":0,"o":"m 28 868 l 303 868 l 303 608 l 154 608 l 154 435 l 303 435 l 303 0 l 486 0 l 486 435 l 633 435 l 633 608 l 486 608 l 486 868 l 761 868 l 761 1042 l 28 1042 z "},"Ù":{"ha":789,"x_min":0,"x_max":0,"o":"m 761 1042 l 578 1042 l 578 329 b 394 149 578 222 500 149 b 211 329 289 149 211 222 l 211 1042 l 28 1042 l 28 332 b 394 -22 28 122 192 -22 b 761 332 597 -22 761 122 z m 311 1097 l 536 1097 l 169 1346 l 169 1181 z "},"Ú":{"ha":789,"x_min":0,"x_max":0,"o":"m 761 332 b 394 -22 761 122 597 -22 b 28 332 192 -22 28 122 l 28 1042 l 211 1042 l 211 329 b 394 149 211 222 289 149 b 578 329 500 149 578 222 l 578 1042 l 761 1042 z m 633 1181 l 633 1346 l 267 1097 l 492 1097 z "},"Û":{"ha":789,"x_min":0,"x_max":0,"o":"m 761 1042 l 578 1042 l 578 329 b 394 149 578 222 500 149 b 211 329 289 149 211 222 l 211 1042 l 28 1042 l 28 332 b 394 -22 28 122 192 -22 b 761 332 597 -22 761 122 z m 394 1201 l 599 1068 l 599 1221 l 469 1310 l 318 1310 l 189 1221 l 189 1068 z "},"Ũ":{"ha":789,"x_min":0,"x_max":0,"o":"m 761 332 b 394 -22 761 122 597 -22 b 28 332 192 -22 28 122 l 28 1042 l 211 1042 l 211 329 b 394 149 211 222 289 149 b 578 329 500 149 578 222 l 578 1042 l 761 1042 z m 493 1090 b 599 1135 535 1090 569 1106 l 599 1278 b 496 1219 578 1250 553 1219 b 294 1282 442 1219 361 1282 b 189 1238 253 1282 218 1267 l 189 1094 b 292 1153 210 1122 235 1153 b 493 1090 344 1153 426 1090 z "},"Ü":{"ha":789,"x_min":0,"x_max":0,"o":"m 761 332 b 394 -22 761 122 597 -22 b 28 332 192 -22 28 122 l 28 1042 l 211 1042 l 211 329 b 394 149 211 222 289 149 b 578 329 500 149 578 222 l 578 1042 l 761 1042 z m 576 1300 l 438 1300 l 394 1169 l 507 1089 l 621 1169 z m 350 1300 l 211 1300 l 168 1169 l 281 1089 l 394 1169 z "},"Ū":{"ha":789,"x_min":0,"x_max":0,"o":"m 761 332 b 394 -22 761 122 597 -22 b 28 332 192 -22 28 122 l 28 1042 l 211 1042 l 211 329 b 394 149 211 222 289 149 b 578 329 500 149 578 222 l 578 1042 l 761 1042 z m 189 1126 l 599 1126 l 599 1258 l 189 1258 z "},"Ŭ":{"ha":789,"x_min":0,"x_max":0,"o":"m 761 1042 l 578 1042 l 578 329 b 394 149 578 222 500 149 b 211 329 289 149 211 222 l 211 1042 l 28 1042 l 28 332 b 394 -22 28 122 192 -22 b 761 332 597 -22 761 122 z m 393 1214 b 318 1292 350 1214 322 1246 l 182 1292 b 393 1089 186 1165 274 1089 b 606 1292 513 1089 601 1165 l 469 1292 b 393 1214 465 1246 436 1214 z "},"Ů":{"ha":789,"x_min":0,"x_max":0,"o":"m 761 1042 l 578 1042 l 578 329 b 394 149 578 222 500 149 b 211 329 289 149 211 222 l 211 1042 l 28 1042 l 28 332 b 394 -22 28 122 192 -22 b 761 332 597 -22 761 122 z m 240 1228 b 394 1074 240 1143 310 1074 b 549 1228 479 1074 549 1143 b 394 1382 549 1313 479 1382 b 240 1228 310 1382 240 1313 z m 340 1228 b 394 1282 340 1258 364 1282 b 449 1228 425 1282 449 1258 b 394 1174 449 1197 425 1174 b 340 1228 364 1174 340 1197 z "},"Ű":{"ha":789,"x_min":0,"x_max":0,"o":"m 761 332 b 394 -22 761 122 597 -22 b 28 332 192 -22 28 122 l 28 1042 l 211 1042 l 211 329 b 394 149 211 222 289 149 b 578 329 500 149 578 222 l 578 1042 l 761 1042 z m 451 1179 l 451 1338 l 151 1097 l 340 1097 z m 693 1179 l 693 1338 l 388 1097 l 576 1097 z "},"Ų":{"ha":789,"x_min":0,"x_max":0,"o":"m 638 -151 b 589 -175 621 -165 606 -175 b 561 -146 571 -175 561 -164 l 561 14 b 761 332 679 69 761 183 l 761 1042 l 578 1042 l 578 329 b 394 149 578 222 500 149 b 211 329 289 149 211 222 l 211 1042 l 28 1042 l 28 332 b 394 -22 28 122 192 -22 b 417 -21 401 -22 408 -22 l 417 -165 b 572 -321 417 -267 472 -321 b 707 -271 624 -321 668 -303 z "},"Ẁ":{"ha":1379,"x_min":0,"x_max":0,"o":"m 1351 1042 l 1153 1042 l 858 279 l 799 608 l 581 608 l 521 279 l 226 1042 l 28 1042 l 449 0 l 632 0 l 689 288 l 747 0 l 931 0 z m 633 1097 l 858 1097 l 492 1346 l 492 1181 z "},"Ẃ":{"ha":1379,"x_min":0,"x_max":0,"o":"m 931 0 l 747 0 l 689 288 l 632 0 l 449 0 l 28 1042 l 226 1042 l 521 279 l 581 608 l 799 608 l 858 279 l 1153 1042 l 1351 1042 z m 914 1181 l 914 1346 l 547 1097 l 772 1097 z "},"Ŵ":{"ha":1379,"x_min":0,"x_max":0,"o":"m 1351 1042 l 1153 1042 l 858 279 l 799 608 l 581 608 l 521 279 l 226 1042 l 28 1042 l 449 0 l 632 0 l 689 288 l 747 0 l 931 0 z m 690 1201 l 894 1068 l 894 1221 l 765 1310 l 614 1310 l 485 1221 l 485 1068 z "},"Ẅ":{"ha":1379,"x_min":0,"x_max":0,"o":"m 931 0 l 747 0 l 689 288 l 632 0 l 449 0 l 28 1042 l 226 1042 l 521 279 l 581 608 l 799 608 l 858 279 l 1153 1042 l 1351 1042 z m 871 1300 l 732 1300 l 689 1169 l 801 1089 l 915 1169 z m 644 1300 l 506 1300 l 463 1169 l 575 1089 l 689 1169 z "},"Ỳ":{"ha":751,"x_min":0,"x_max":0,"o":"m 724 1042 l 528 1042 l 383 650 l 231 1042 l 28 1042 l 471 0 l 663 0 l 478 435 z m 292 1097 l 517 1097 l 150 1346 l 150 1181 z "},"Ý":{"ha":751,"x_min":0,"x_max":0,"o":"m 478 435 l 663 0 l 471 0 l 28 1042 l 231 1042 l 383 650 l 528 1042 l 724 1042 z m 626 1181 l 626 1346 l 260 1097 l 485 1097 z "},"Ŷ":{"ha":751,"x_min":0,"x_max":0,"o":"m 724 1042 l 528 1042 l 383 650 l 231 1042 l 28 1042 l 471 0 l 663 0 l 478 435 z m 376 1201 l 581 1068 l 581 1221 l 451 1310 l 300 1310 l 171 1221 l 171 1068 z "},"Ÿ":{"ha":751,"x_min":0,"x_max":0,"o":"m 478 435 l 663 0 l 471 0 l 28 1042 l 231 1042 l 383 650 l 528 1042 l 724 1042 z m 557 1300 l 418 1300 l 375 1169 l 488 1089 l 601 1169 z m 331 1300 l 192 1300 l 149 1169 l 261 1089 l 375 1169 z "},"Ź":{"ha":690,"x_min":0,"x_max":0,"o":"m 28 0 l 28 174 l 464 868 l 36 868 l 36 1042 l 663 1042 l 663 868 l 224 174 l 663 174 l 663 0 z m 569 1181 l 569 1346 l 203 1097 l 428 1097 z "},"Ž":{"ha":690,"x_min":0,"x_max":0,"o":"m 663 0 l 663 174 l 224 174 l 663 868 l 663 1042 l 36 1042 l 36 868 l 464 868 l 28 174 l 28 0 z m 143 1339 l 143 1186 l 272 1097 l 424 1097 l 553 1186 l 553 1339 l 349 1206 z "},"Ż":{"ha":690,"x_min":0,"x_max":0,"o":"m 28 0 l 28 174 l 464 868 l 36 868 l 36 1042 l 663 1042 l 663 868 l 224 174 l 663 174 l 663 0 z m 414 1300 l 275 1300 l 232 1169 l 344 1089 l 458 1169 z "},"a":{"ha":1133,"x_min":0,"x_max":0,"o":"m 1106 614 l 889 508 l 663 1042 l 471 1042 l 28 0 l 213 0 l 793 279 l 913 0 l 1106 0 l 953 357 l 1106 431 z m 565 817 l 728 432 l 315 233 z "},"b":{"ha":813,"x_min":0,"x_max":0,"o":"m 601 739 b 457 608 601 653 536 608 l 211 608 l 211 868 l 457 868 b 601 739 536 868 601 825 z m 635 486 b 785 739 722 538 785 622 b 453 1042 785 926 631 1042 l 28 1042 l 29 0 l 369 0 b 701 303 547 0 701 115 b 635 486 701 376 676 439 z m 518 303 b 374 174 518 217 453 174 l 213 174 l 213 435 l 374 435 b 518 303 453 435 518 389 z "},"c":{"ha":1035,"x_min":0,"x_max":0,"o":"m 571 150 b 203 521 361 150 203 311 b 571 893 203 731 361 893 b 879 715 710 893 818 824 l 1007 843 b 571 1064 908 979 753 1064 b 28 521 271 1064 28 828 b 571 -22 28 214 271 -22 b 1007 199 750 -22 908 64 l 879 326 b 571 150 818 218 710 150 z "},"d":{"ha":829,"x_min":0,"x_max":0,"o":"m 28 0 l 267 0 b 815 521 565 0 815 214 b 267 1042 815 828 565 1042 l 28 1042 z m 211 174 l 211 868 l 271 868 b 633 521 483 868 633 732 b 271 174 633 310 483 172 z "},"e":{"ha":706,"x_min":0,"x_max":0,"o":"m 28 0 l 678 0 l 678 174 l 211 174 l 211 435 l 678 435 l 678 608 l 211 608 l 211 868 l 678 868 l 678 1042 l 28 1042 z "},"f":{"ha":789,"x_min":0,"x_max":0,"o":"m 400 1042 l 211 1042 l 211 608 l 28 608 l 28 435 l 211 435 l 211 0 l 394 0 l 394 435 l 761 435 l 761 608 l 394 608 l 394 829 l 636 615 l 636 831 z "},"g":{"ha":1074,"x_min":0,"x_max":0,"o":"m 557 -22 b 864 79 669 -22 776 17 l 864 0 l 1046 0 l 1046 521 l 189 521 b 557 893 189 731 347 893 b 865 715 696 893 804 824 l 993 843 b 557 1064 894 979 739 1064 b 14 521 257 1064 14 828 b 557 -22 14 214 257 -22 z m 557 150 b 228 350 408 150 288 229 l 868 350 l 868 326 b 557 150 817 217 696 150 z "},"h":{"ha":789,"x_min":0,"x_max":0,"o":"m 578 608 l 211 608 l 211 1042 l 28 1042 l 28 0 l 211 0 l 211 435 l 578 435 l 578 0 l 761 0 l 761 1042 l 578 1042 z "},"i":{"ha":789,"x_min":0,"x_max":0,"o":"m 761 0 l 761 174 l 486 174 l 486 868 l 761 868 l 761 1042 l 28 1042 l 28 868 l 303 868 l 303 174 l 28 174 l 28 0 z "},"j":{"ha":707,"x_min":0,"x_max":0,"o":"m 211 438 l 28 438 l 28 301 b 353 -21 28 114 164 -21 b 679 301 540 -21 679 114 l 679 1043 l 496 1043 l 496 301 b 353 156 496 218 442 156 b 211 301 263 156 211 218 z "},"k":{"ha":960,"x_min":0,"x_max":0,"o":"m 211 658 l 211 1042 l 28 1042 l 28 0 l 211 0 l 211 374 l 657 0 l 932 0 l 308 521 l 908 838 l 908 1042 z "},"l":{"ha":722,"x_min":0,"x_max":0,"o":"m 28 0 l 211 0 l 694 308 l 694 514 l 211 208 l 211 1042 l 28 1042 z "},"m":{"ha":972,"x_min":0,"x_max":0,"o":"m 944 1042 l 692 1042 l 486 585 l 281 1042 l 28 1042 l 28 0 l 204 0 l 204 790 l 390 385 l 582 385 l 768 790 l 768 0 l 944 0 z "},"n":{"ha":817,"x_min":0,"x_max":0,"o":"m 608 339 l 226 1042 l 28 1042 l 28 0 l 208 0 l 208 701 l 592 0 l 789 0 l 789 1042 l 608 1042 z "},"o":{"ha":1142,"x_min":0,"x_max":0,"o":"m 28 521 b 571 -22 28 214 271 -22 b 1114 521 871 -22 1114 214 b 571 1064 1114 828 871 1064 b 28 521 271 1064 28 828 z m 201 521 b 571 893 201 731 365 893 b 942 521 776 893 942 731 b 571 150 942 311 776 150 b 201 521 365 150 201 311 z "},"p":{"ha":799,"x_min":0,"x_max":0,"o":"m 439 435 b 771 739 617 435 771 551 b 439 1042 771 926 617 1042 l 28 1042 l 28 0 l 211 0 l 211 435 z m 588 739 b 443 608 588 656 522 608 l 211 608 l 211 868 l 443 868 b 588 739 522 868 588 825 z "},"q":{"ha":1142,"x_min":0,"x_max":0,"o":"m 28 521 b 571 -22 28 214 271 -22 b 865 63 679 -22 781 8 l 911 0 l 1113 0 l 989 172 b 1114 521 1067 265 1114 386 b 571 1064 1114 828 871 1064 b 28 521 271 1064 28 828 z m 201 521 b 571 893 201 731 365 893 b 942 521 776 893 942 731 b 883 319 942 446 919 378 l 803 433 l 594 433 l 763 201 b 571 150 707 168 642 150 b 201 521 365 150 201 311 z "},"r":{"ha":867,"x_min":0,"x_max":0,"o":"m 453 435 b 613 251 561 435 601 357 b 649 0 617 214 626 124 l 839 0 b 799 256 814 126 804 204 b 675 514 783 400 735 467 b 785 739 739 567 785 643 b 453 1042 785 926 631 1042 l 28 1042 l 28 0 l 211 0 l 211 435 z m 601 739 b 457 608 601 653 536 608 l 211 608 l 211 868 l 457 868 b 601 739 536 868 601 825 z "},"s":{"ha":714,"x_min":0,"x_max":0,"o":"m 357 888 b 550 717 446 888 511 794 l 683 844 b 360 1063 632 956 496 1063 b 40 758 172 1063 40 932 b 324 432 40 571 200 494 b 500 279 419 383 500 347 b 361 156 500 199 438 156 b 160 326 272 156 197 247 l 28 199 b 358 -21 79 86 222 -21 b 686 283 551 -21 686 103 b 424 590 686 457 546 531 b 224 760 321 640 224 683 b 357 888 224 839 282 888 z "},"t":{"ha":789,"x_min":0,"x_max":0,"o":"m 28 868 l 303 868 l 303 0 l 486 0 l 486 868 l 761 868 l 761 1042 l 28 1042 z "},"u":{"ha":789,"x_min":0,"x_max":0,"o":"m 761 1042 l 578 1042 l 578 329 b 394 149 578 222 500 149 b 211 329 289 149 211 222 l 211 1042 l 28 1042 l 28 332 b 394 -22 28 122 192 -22 b 761 332 597 -22 761 122 z "},"v":{"ha":890,"x_min":0,"x_max":0,"o":"m 349 0 l 540 0 l 863 1042 l 669 1042 l 444 267 l 221 1042 l 28 1042 z "},"w":{"ha":1379,"x_min":0,"x_max":0,"o":"m 1351 1042 l 1153 1042 l 858 279 l 799 608 l 581 608 l 521 279 l 226 1042 l 28 1042 l 449 0 l 632 0 l 689 288 l 747 0 l 931 0 z "},"x":{"ha":690,"x_min":0,"x_max":0,"o":"m 344 294 l 471 0 l 663 0 l 442 521 l 663 1042 l 469 1042 l 344 749 l 221 1042 l 28 1042 l 249 521 l 28 0 l 219 0 z "},"y":{"ha":751,"x_min":0,"x_max":0,"o":"m 275 435 l 89 0 l 281 0 l 724 1042 l 524 1042 l 369 649 l 224 1042 l 28 1042 z "},"z":{"ha":690,"x_min":0,"x_max":0,"o":"m 663 0 l 663 174 l 224 174 l 663 868 l 663 1042 l 36 1042 l 36 868 l 464 868 l 28 174 l 28 0 z "},"æ":{"ha":1293,"x_min":0,"x_max":0,"o":"m 863 575 l 736 868 l 1264 868 l 1264 1042 l 471 1042 l 28 0 l 213 0 l 772 326 l 910 0 l 1110 0 l 1265 92 l 1265 293 l 1042 158 l 929 418 l 1264 614 l 1264 814 z m 565 817 l 706 482 l 324 256 z "},"ð":{"ha":843,"x_min":0,"x_max":0,"o":"m 28 433 l 83 433 l 83 0 l 267 0 b 815 521 565 0 815 214 b 267 1042 815 828 565 1042 l 83 1042 l 83 607 l 28 607 z m 267 174 l 267 433 l 494 433 l 494 607 l 267 607 l 267 868 l 271 868 b 633 521 483 868 633 732 b 271 174 633 310 483 172 z "},"ß":{"ha":813,"x_min":0,"x_max":0,"o":"m 429 0 l 453 0 b 785 303 631 0 785 115 b 635 556 785 419 722 504 b 701 739 676 603 701 665 b 369 1042 701 926 547 1042 b 38 735 192 1042 38 922 l 38 0 l 221 0 l 221 433 l 457 433 b 601 303 536 433 601 386 b 457 174 601 219 536 174 l 429 174 z m 221 607 l 221 735 b 369 869 221 821 286 869 b 518 739 449 869 518 825 b 374 607 518 653 453 607 z "},"œ":{"ha":1444,"x_min":0,"x_max":0,"o":"m 28 521 b 571 -22 28 214 271 -22 b 726 0 625 -22 676 -14 l 1417 0 l 1417 174 l 990 174 b 1107 435 1050 246 1092 335 l 1417 435 l 1417 608 l 1107 608 b 990 868 1092 707 1050 796 l 1417 868 l 1417 1042 l 726 1042 b 571 1064 676 1056 625 1064 b 28 521 271 1064 28 828 z m 201 521 b 571 893 201 731 365 893 b 942 521 776 893 942 731 b 571 150 942 311 776 150 b 201 521 365 150 201 311 z "},"ø":{"ha":1142,"x_min":0,"x_max":0,"o":"m 28 521 b 169 151 28 376 82 247 l 28 -22 l 222 -22 l 286 56 b 571 -22 369 6 467 -22 b 1114 521 871 -22 1114 214 b 971 890 1114 665 1060 794 l 1113 1064 l 918 1064 l 854 985 b 571 1064 771 1035 675 1064 b 28 521 271 1064 28 828 z m 571 150 b 397 192 508 150 449 164 l 860 756 b 942 521 911 692 942 611 b 571 150 942 311 776 150 z m 201 521 b 571 893 201 731 365 893 b 743 851 633 893 692 878 l 281 288 b 201 521 231 350 201 431 z "},"þ":{"ha":799,"x_min":0,"x_max":0,"o":"m 28 0 l 211 0 l 211 218 l 439 218 b 771 522 617 218 771 335 b 439 825 771 710 617 825 l 211 825 l 211 1042 l 28 1042 z m 588 522 b 443 392 588 439 522 392 l 211 392 l 211 651 l 443 651 b 588 522 522 651 588 608 z "},"à":{"ha":1133,"x_min":0,"x_max":0,"o":"m 1106 614 l 889 508 l 663 1042 l 471 1042 l 28 0 l 213 0 l 793 279 l 913 0 l 1106 0 l 953 357 l 1106 431 z m 565 817 l 728 432 l 315 233 z m 429 1097 l 654 1097 l 288 1346 l 288 1181 z "},"á":{"ha":1133,"x_min":0,"x_max":0,"o":"m 1106 431 l 953 357 l 1106 0 l 913 0 l 793 279 l 213 0 l 28 0 l 471 1042 l 663 1042 l 889 508 l 1106 614 z m 315 233 l 728 432 l 565 817 z m 844 1181 l 844 1346 l 478 1097 l 703 1097 z "},"â":{"ha":1133,"x_min":0,"x_max":0,"o":"m 1106 614 l 889 508 l 663 1042 l 471 1042 l 28 0 l 213 0 l 793 279 l 913 0 l 1106 0 l 953 357 l 1106 431 z m 565 817 l 728 432 l 315 233 z m 567 1201 l 771 1068 l 771 1221 l 642 1310 l 490 1310 l 361 1221 l 361 1068 z "},"ã":{"ha":1133,"x_min":0,"x_max":0,"o":"m 1106 431 l 953 357 l 1106 0 l 913 0 l 793 279 l 213 0 l 28 0 l 471 1042 l 663 1042 l 889 508 l 1106 614 z m 315 233 l 728 432 l 565 817 z m 665 1090 b 771 1135 707 1090 742 1106 l 771 1278 b 668 1219 750 1250 725 1219 b 467 1282 614 1219 533 1282 b 361 1238 425 1282 390 1267 l 361 1094 b 464 1153 382 1122 407 1153 b 665 1090 517 1153 599 1090 z "},"ä":{"ha":1133,"x_min":0,"x_max":0,"o":"m 1106 431 l 953 357 l 1106 0 l 913 0 l 793 279 l 213 0 l 28 0 l 471 1042 l 663 1042 l 889 508 l 1106 614 z m 315 233 l 728 432 l 565 817 z m 522 1300 l 383 1300 l 340 1169 l 453 1089 l 567 1169 z m 749 1300 l 610 1300 l 567 1169 l 679 1089 l 793 1169 z "},"ā":{"ha":1133,"x_min":0,"x_max":0,"o":"m 1106 431 l 953 357 l 1106 0 l 913 0 l 793 279 l 213 0 l 28 0 l 471 1042 l 663 1042 l 889 508 l 1106 614 z m 315 233 l 728 432 l 565 817 z m 361 1126 l 771 1126 l 771 1258 l 361 1258 z "},"ă":{"ha":1133,"x_min":0,"x_max":0,"o":"m 1106 614 l 889 508 l 663 1042 l 471 1042 l 28 0 l 213 0 l 793 279 l 913 0 l 1106 0 l 953 357 l 1106 431 z m 565 817 l 728 432 l 315 233 z m 565 1214 b 490 1292 522 1214 494 1246 l 354 1292 b 565 1089 358 1165 446 1089 b 778 1292 685 1089 774 1165 l 642 1292 b 565 1214 638 1246 608 1214 z "},"å":{"ha":1133,"x_min":0,"x_max":0,"o":"m 1106 614 l 889 508 l 663 1042 l 471 1042 l 28 0 l 213 0 l 793 279 l 913 0 l 1106 0 l 953 357 l 1106 431 z m 565 817 l 728 432 l 315 233 z m 413 1228 b 567 1074 413 1143 482 1074 b 721 1228 651 1074 721 1143 b 567 1382 721 1313 651 1382 b 413 1228 482 1382 413 1313 z m 513 1228 b 567 1282 513 1258 536 1282 b 621 1228 597 1282 621 1258 b 567 1174 621 1197 597 1174 b 513 1228 536 1174 513 1197 z "},"ǻ":{"ha":1133,"x_min":0,"x_max":0,"o":"m 1106 431 l 953 357 l 1106 0 l 913 0 l 793 279 l 213 0 l 28 0 l 471 1042 l 663 1042 l 889 508 l 1106 614 z m 315 233 l 728 432 l 565 817 z m 413 1228 b 567 1382 413 1313 482 1382 b 721 1228 651 1382 721 1313 b 567 1074 721 1143 651 1074 b 413 1228 482 1074 413 1143 z m 513 1228 b 567 1174 513 1197 536 1174 b 621 1228 597 1174 621 1197 b 567 1282 621 1258 597 1282 b 513 1228 536 1282 513 1258 z m 833 1500 l 833 1665 l 467 1417 l 692 1417 z "},"ą":{"ha":1133,"x_min":0,"x_max":0,"o":"m 1147 -151 b 1099 -175 1131 -165 1115 -175 b 1071 -146 1081 -175 1071 -164 l 1071 0 l 1106 0 l 953 357 l 1106 431 l 1106 614 l 889 508 l 663 1042 l 471 1042 l 28 0 l 213 0 l 793 279 l 913 0 l 926 0 l 926 -165 b 1082 -321 926 -267 982 -321 b 1217 -271 1133 -321 1178 -303 z m 565 817 l 728 432 l 315 233 z "},"ǽ":{"ha":1293,"x_min":0,"x_max":0,"o":"m 1264 814 l 1264 614 l 929 418 l 1042 158 l 1265 293 l 1265 92 l 1110 0 l 910 0 l 772 326 l 213 0 l 28 0 l 471 1042 l 1264 1042 l 1264 868 l 736 868 l 863 575 z m 324 256 l 706 482 l 565 817 z m 1051 1181 l 1051 1346 l 685 1097 l 910 1097 z "},"ć":{"ha":1035,"x_min":0,"x_max":0,"o":"m 571 150 b 203 521 361 150 203 311 b 571 893 203 731 361 893 b 879 715 710 893 818 824 l 1007 843 b 571 1064 908 979 753 1064 b 28 521 271 1064 28 828 b 571 -22 28 214 271 -22 b 1007 199 750 -22 908 64 l 879 326 b 571 150 818 218 710 150 z m 824 1181 l 824 1346 l 457 1097 l 682 1097 z "},"ĉ":{"ha":1035,"x_min":0,"x_max":0,"o":"m 571 150 b 203 521 361 150 203 311 b 571 893 203 731 361 893 b 879 715 710 893 818 824 l 1007 843 b 571 1064 908 979 753 1064 b 28 521 271 1064 28 828 b 571 -22 28 214 271 -22 b 1007 199 750 -22 908 64 l 879 326 b 571 150 818 218 710 150 z m 574 1201 l 778 1068 l 778 1221 l 649 1310 l 497 1310 l 368 1221 l 368 1068 z "},"č":{"ha":1035,"x_min":0,"x_max":0,"o":"m 571 150 b 203 521 361 150 203 311 b 571 893 203 731 361 893 b 879 715 710 893 818 824 l 1007 843 b 571 1064 908 979 753 1064 b 28 521 271 1064 28 828 b 571 -22 28 214 271 -22 b 1007 199 750 -22 908 64 l 879 326 b 571 150 818 218 710 150 z m 368 1339 l 368 1186 l 497 1097 l 649 1097 l 778 1186 l 778 1339 l 574 1206 z "},"ċ":{"ha":1035,"x_min":0,"x_max":0,"o":"m 571 150 b 203 521 361 150 203 311 b 571 893 203 731 361 893 b 879 715 710 893 818 824 l 1007 843 b 571 1064 908 979 753 1064 b 28 521 271 1064 28 828 b 571 -22 28 214 271 -22 b 1007 199 750 -22 908 64 l 879 326 b 571 150 818 218 710 150 z m 642 1300 l 503 1300 l 460 1169 l 572 1089 l 686 1169 z "},"ç":{"ha":1035,"x_min":0,"x_max":0,"o":"m 431 -299 b 561 -328 460 -315 510 -328 b 731 -174 647 -328 731 -276 b 632 -47 731 -101 679 -58 l 632 -18 b 1007 199 786 -1 919 79 l 879 326 b 571 150 818 218 710 150 b 203 521 361 150 203 311 b 571 893 203 731 361 893 b 879 715 710 893 818 824 l 1007 843 b 571 1064 908 979 753 1064 b 28 521 271 1064 28 828 b 500 -17 28 238 233 17 l 500 -128 b 590 -165 563 -121 590 -137 b 546 -201 590 -189 571 -201 b 469 -171 504 -201 469 -171 z "},"ď":{"ha":829,"x_min":0,"x_max":0,"o":"m 28 0 l 267 0 b 815 521 565 0 815 214 b 267 1042 815 828 565 1042 l 28 1042 z m 211 174 l 211 868 l 271 868 b 633 521 483 868 633 732 b 271 174 633 310 483 172 z m 97 1339 l 97 1186 l 226 1097 l 378 1097 l 507 1186 l 507 1339 l 303 1206 z "},"đ":{"ha":829,"x_min":0,"x_max":0,"o":"m -42 454 l 28 454 l 28 0 l 267 0 b 815 521 565 0 815 214 b 267 1042 815 828 565 1042 l 28 1042 l 28 586 l -42 586 z m 211 174 l 211 454 l 396 454 l 396 586 l 211 586 l 211 868 l 271 868 b 633 521 483 868 633 732 b 271 174 633 310 483 172 z "},"è":{"ha":706,"x_min":0,"x_max":0,"o":"m 28 0 l 678 0 l 678 174 l 211 174 l 211 435 l 678 435 l 678 608 l 211 608 l 211 868 l 678 868 l 678 1042 l 28 1042 z m 311 1097 l 536 1097 l 169 1346 l 169 1181 z "},"é":{"ha":706,"x_min":0,"x_max":0,"o":"m 28 1042 l 678 1042 l 678 868 l 211 868 l 211 608 l 678 608 l 678 435 l 211 435 l 211 174 l 678 174 l 678 0 l 28 0 z m 578 1181 l 578 1346 l 211 1097 l 436 1097 z "},"ê":{"ha":706,"x_min":0,"x_max":0,"o":"m 28 0 l 678 0 l 678 174 l 211 174 l 211 435 l 678 435 l 678 608 l 211 608 l 211 868 l 678 868 l 678 1042 l 28 1042 z m 353 1201 l 557 1068 l 557 1221 l 428 1310 l 276 1310 l 147 1221 l 147 1068 z "},"ě":{"ha":706,"x_min":0,"x_max":0,"o":"m 28 0 l 678 0 l 678 174 l 211 174 l 211 435 l 678 435 l 678 608 l 211 608 l 211 868 l 678 868 l 678 1042 l 28 1042 z m 147 1339 l 147 1186 l 276 1097 l 428 1097 l 557 1186 l 557 1339 l 353 1206 z "},"ë":{"ha":706,"x_min":0,"x_max":0,"o":"m 28 1042 l 678 1042 l 678 868 l 211 868 l 211 608 l 678 608 l 678 435 l 211 435 l 211 174 l 678 174 l 678 0 l 28 0 z m 535 1300 l 396 1300 l 353 1169 l 465 1089 l 579 1169 z m 308 1300 l 169 1300 l 126 1169 l 239 1089 l 353 1169 z "},"ē":{"ha":706,"x_min":0,"x_max":0,"o":"m 28 1042 l 678 1042 l 678 868 l 211 868 l 211 608 l 678 608 l 678 435 l 211 435 l 211 174 l 678 174 l 678 0 l 28 0 z m 147 1126 l 557 1126 l 557 1258 l 147 1258 z "},"ĕ":{"ha":706,"x_min":0,"x_max":0,"o":"m 28 0 l 678 0 l 678 174 l 211 174 l 211 435 l 678 435 l 678 608 l 211 608 l 211 868 l 678 868 l 678 1042 l 28 1042 z m 365 1214 b 290 1292 322 1214 294 1246 l 154 1292 b 365 1089 158 1165 246 1089 b 578 1292 485 1089 574 1165 l 442 1292 b 365 1214 438 1246 408 1214 z "},"ė":{"ha":706,"x_min":0,"x_max":0,"o":"m 28 1042 l 678 1042 l 678 868 l 211 868 l 211 608 l 678 608 l 678 435 l 211 435 l 211 174 l 678 174 l 678 0 l 28 0 z m 421 1300 l 282 1300 l 239 1169 l 351 1089 l 465 1169 z "},"ę":{"ha":706,"x_min":0,"x_max":0,"o":"m 622 -151 b 574 -175 606 -165 590 -175 b 546 -146 556 -175 546 -164 l 546 0 l 678 0 l 678 174 l 211 174 l 211 435 l 678 435 l 678 608 l 211 608 l 211 868 l 678 868 l 678 1042 l 28 1042 l 28 0 l 401 0 l 401 -165 b 557 -321 401 -267 457 -321 b 692 -271 608 -321 653 -303 z "},"ĝ":{"ha":1074,"x_min":0,"x_max":0,"o":"m 557 -22 b 864 79 669 -22 776 17 l 864 0 l 1046 0 l 1046 521 l 189 521 b 557 893 189 731 347 893 b 865 715 696 893 804 824 l 993 843 b 557 1064 894 979 739 1064 b 14 521 257 1064 14 828 b 557 -22 14 214 257 -22 z m 557 150 b 228 350 408 150 288 229 l 868 350 l 868 326 b 557 150 817 217 696 150 z m 542 1201 l 746 1068 l 746 1221 l 617 1310 l 465 1310 l 336 1221 l 336 1068 z "},"ğ":{"ha":1074,"x_min":0,"x_max":0,"o":"m 557 -22 b 864 79 669 -22 776 17 l 864 0 l 1046 0 l 1046 521 l 189 521 b 557 893 189 731 347 893 b 865 715 696 893 804 824 l 993 843 b 557 1064 894 979 739 1064 b 14 521 257 1064 14 828 b 557 -22 14 214 257 -22 z m 557 150 b 228 350 408 150 288 229 l 868 350 l 868 326 b 557 150 817 217 696 150 z m 564 1214 b 489 1292 521 1214 493 1246 l 353 1292 b 564 1089 357 1165 444 1089 b 776 1292 683 1089 772 1165 l 640 1292 b 564 1214 636 1246 607 1214 z "},"ġ":{"ha":1074,"x_min":0,"x_max":0,"o":"m 557 -22 b 14 521 257 -22 14 214 b 557 1064 14 828 257 1064 b 993 843 739 1064 894 979 l 865 715 b 557 893 804 824 696 893 b 189 521 347 893 189 731 l 1046 521 l 1046 0 l 864 0 l 864 79 b 557 -22 776 17 669 -22 z m 557 150 b 868 326 696 150 817 217 l 868 350 l 228 350 b 557 150 288 229 408 150 z m 619 1300 l 481 1300 l 438 1169 l 550 1089 l 664 1169 z "},"ģ":{"ha":1074,"x_min":0,"x_max":0,"o":"m 557 -22 b 864 79 669 -22 776 17 l 864 0 l 1046 0 l 1046 521 l 189 521 b 557 893 189 731 347 893 b 865 715 696 893 804 824 l 993 843 b 557 1064 894 979 739 1064 b 14 521 257 1064 14 828 b 557 -22 14 214 257 -22 z m 557 150 b 228 350 408 150 288 229 l 868 350 l 868 326 b 557 150 817 217 696 150 z m 531 -276 b 467 -329 528 -324 494 -329 l 467 -396 b 615 -276 553 -396 593 -361 l 651 -146 l 538 -62 l 422 -146 l 467 -276 z "},"ĥ":{"ha":789,"x_min":0,"x_max":0,"o":"m 578 608 l 211 608 l 211 1042 l 28 1042 l 28 0 l 211 0 l 211 435 l 578 435 l 578 0 l 761 0 l 761 1042 l 578 1042 z m 394 1201 l 599 1068 l 599 1221 l 469 1310 l 318 1310 l 189 1221 l 189 1068 z "},"ħ":{"ha":789,"x_min":0,"x_max":0,"o":"m -61 751 l 28 751 l 28 0 l 211 0 l 211 435 l 578 435 l 578 0 l 761 0 l 761 751 l 849 751 l 849 883 l 761 883 l 761 1042 l 578 1042 l 578 883 l 211 883 l 211 1042 l 28 1042 l 28 883 l -61 883 z m 211 608 l 211 751 l 578 751 l 578 608 z "},"ì":{"ha":789,"x_min":0,"x_max":0,"o":"m 761 0 l 761 174 l 486 174 l 486 868 l 761 868 l 761 1042 l 28 1042 l 28 868 l 303 868 l 303 174 l 28 174 l 28 0 z m 297 1097 l 522 1097 l 156 1346 l 156 1181 z "},"í":{"ha":789,"x_min":0,"x_max":0,"o":"m 28 0 l 28 174 l 303 174 l 303 868 l 28 868 l 28 1042 l 761 1042 l 761 868 l 486 868 l 486 174 l 761 174 l 761 0 z m 650 1181 l 650 1346 l 283 1097 l 508 1097 z "},"î":{"ha":789,"x_min":0,"x_max":0,"o":"m 761 0 l 761 174 l 486 174 l 486 868 l 761 868 l 761 1042 l 28 1042 l 28 868 l 303 868 l 303 174 l 28 174 l 28 0 z m 394 1201 l 599 1068 l 599 1221 l 469 1310 l 318 1310 l 189 1221 l 189 1068 z "},"ĩ":{"ha":789,"x_min":0,"x_max":0,"o":"m 28 0 l 28 174 l 303 174 l 303 868 l 28 868 l 28 1042 l 761 1042 l 761 868 l 486 868 l 486 174 l 761 174 l 761 0 z m 493 1090 b 599 1135 535 1090 569 1106 l 599 1278 b 496 1219 578 1250 553 1219 b 294 1282 442 1219 361 1282 b 189 1238 253 1282 218 1267 l 189 1094 b 292 1153 210 1122 235 1153 b 493 1090 344 1153 426 1090 z "},"ï":{"ha":789,"x_min":0,"x_max":0,"o":"m 28 0 l 28 174 l 303 174 l 303 868 l 28 868 l 28 1042 l 761 1042 l 761 868 l 486 868 l 486 174 l 761 174 l 761 0 z m 576 1300 l 438 1300 l 394 1169 l 507 1089 l 621 1169 z m 350 1300 l 211 1300 l 168 1169 l 281 1089 l 394 1169 z "},"ī":{"ha":789,"x_min":0,"x_max":0,"o":"m 28 0 l 28 174 l 303 174 l 303 868 l 28 868 l 28 1042 l 761 1042 l 761 868 l 486 868 l 486 174 l 761 174 l 761 0 z m 189 1126 l 599 1126 l 599 1258 l 189 1258 z "},"ĭ":{"ha":789,"x_min":0,"x_max":0,"o":"m 761 0 l 761 174 l 486 174 l 486 868 l 761 868 l 761 1042 l 28 1042 l 28 868 l 303 868 l 303 174 l 28 174 l 28 0 z m 393 1214 b 318 1292 350 1214 322 1246 l 182 1292 b 393 1089 186 1165 274 1089 b 606 1292 513 1089 601 1165 l 469 1292 b 393 1214 465 1246 436 1214 z "},"į":{"ha":789,"x_min":0,"x_max":0,"o":"m 542 -151 b 493 -175 525 -165 510 -175 b 465 -146 475 -175 465 -164 l 465 0 l 761 0 l 761 174 l 486 174 l 486 868 l 761 868 l 761 1042 l 28 1042 l 28 868 l 303 868 l 303 174 l 28 174 l 28 0 l 321 0 l 321 -165 b 476 -321 321 -267 376 -321 b 611 -271 528 -321 572 -303 z "},"ĵ":{"ha":707,"x_min":0,"x_max":0,"o":"m 211 438 l 28 438 l 28 301 b 353 -21 28 114 164 -21 b 679 301 540 -21 679 114 l 679 1043 l 496 1043 l 496 301 b 353 156 496 218 442 156 b 211 301 263 156 211 218 z m 397 1201 l 601 1068 l 601 1221 l 472 1310 l 321 1310 l 192 1221 l 192 1068 z "},"ķ":{"ha":960,"x_min":0,"x_max":0,"o":"m 211 658 l 211 1042 l 28 1042 l 28 0 l 211 0 l 211 374 l 657 0 l 932 0 l 308 521 l 908 838 l 908 1042 z m 418 -276 b 354 -329 415 -324 382 -329 l 354 -396 b 503 -276 440 -396 481 -361 l 539 -146 l 425 -62 l 310 -146 l 354 -276 z "},"ĺ":{"ha":722,"x_min":0,"x_max":0,"o":"m 28 0 l 211 0 l 694 308 l 694 514 l 211 208 l 211 1042 l 28 1042 z m 393 1181 l 393 1346 l 26 1097 l 251 1097 z "},"ľ":{"ha":722,"x_min":0,"x_max":0,"o":"m 28 0 l 211 0 l 694 308 l 694 514 l 211 208 l 211 1042 l 28 1042 z m 424 896 b 350 822 419 836 386 822 l 350 749 b 517 914 453 753 481 788 l 556 1047 l 429 1139 l 301 1047 l 356 896 z "},"ļ":{"ha":722,"x_min":0,"x_max":0,"o":"m 28 0 l 211 0 l 694 308 l 694 514 l 211 208 l 211 1042 l 28 1042 z m 354 -276 b 290 -329 351 -324 318 -329 l 290 -396 b 439 -276 376 -396 417 -361 l 475 -146 l 361 -62 l 246 -146 l 290 -276 z "},"ŀ":{"ha":722,"x_min":0,"x_max":0,"o":"m 28 0 l 211 0 l 694 308 l 694 514 l 211 208 l 211 1042 l 28 1042 z m 517 500 l 342 500 l 289 663 l 429 764 l 571 663 z "},"ł":{"ha":661,"x_min":0,"x_max":0,"o":"m 28 610 l 83 588 l 83 0 l 267 0 l 633 233 l 633 433 l 267 203 l 267 517 l 410 463 l 410 642 l 267 696 l 267 1042 l 83 1042 l 83 767 l 28 789 z "},"ń":{"ha":817,"x_min":0,"x_max":0,"o":"m 608 1042 l 789 1042 l 789 0 l 592 0 l 208 701 l 208 0 l 28 0 l 28 1042 l 226 1042 l 608 339 z m 633 1181 l 633 1346 l 267 1097 l 492 1097 z "},"ň":{"ha":817,"x_min":0,"x_max":0,"o":"m 608 339 l 226 1042 l 28 1042 l 28 0 l 208 0 l 208 701 l 592 0 l 789 0 l 789 1042 l 608 1042 z m 203 1339 l 203 1186 l 332 1097 l 483 1097 l 613 1186 l 613 1339 l 408 1206 z "},"ñ":{"ha":817,"x_min":0,"x_max":0,"o":"m 608 1042 l 789 1042 l 789 0 l 592 0 l 208 701 l 208 0 l 28 0 l 28 1042 l 226 1042 l 608 339 z m 507 1090 b 613 1135 549 1090 583 1106 l 613 1278 b 510 1219 592 1250 567 1219 b 308 1282 456 1219 375 1282 b 203 1238 267 1282 232 1267 l 203 1094 b 306 1153 224 1122 249 1153 b 507 1090 358 1153 440 1090 z "},"ņ":{"ha":817,"x_min":0,"x_max":0,"o":"m 608 339 l 226 1042 l 28 1042 l 28 0 l 208 0 l 208 701 l 592 0 l 789 0 l 789 1042 l 608 1042 z m 401 -276 b 338 -329 399 -324 365 -329 l 338 -396 b 486 -276 424 -396 464 -361 l 522 -146 l 408 -62 l 293 -146 l 338 -276 z "},"ò":{"ha":1142,"x_min":0,"x_max":0,"o":"m 28 521 b 571 -22 28 214 271 -22 b 1114 521 871 -22 1114 214 b 571 1064 1114 828 871 1064 b 28 521 271 1064 28 828 z m 201 521 b 571 893 201 731 365 893 b 942 521 776 893 942 731 b 571 150 942 311 776 150 b 201 521 365 150 201 311 z m 474 1097 l 699 1097 l 332 1346 l 332 1181 z "},"ó":{"ha":1142,"x_min":0,"x_max":0,"o":"m 28 521 b 571 1064 28 828 271 1064 b 1114 521 871 1064 1114 828 b 571 -22 1114 214 871 -22 b 28 521 271 -22 28 214 z m 201 521 b 571 150 201 311 365 150 b 942 521 776 150 942 311 b 571 893 942 731 776 893 b 201 521 365 893 201 731 z m 832 1181 l 832 1346 l 465 1097 l 690 1097 z "},"ô":{"ha":1142,"x_min":0,"x_max":0,"o":"m 28 521 b 571 -22 28 214 271 -22 b 1114 521 871 -22 1114 214 b 571 1064 1114 828 871 1064 b 28 521 271 1064 28 828 z m 201 521 b 571 893 201 731 365 893 b 942 521 776 893 942 731 b 571 150 942 311 776 150 b 201 521 365 150 201 311 z m 574 1201 l 778 1068 l 778 1221 l 649 1310 l 497 1310 l 368 1221 l 368 1068 z "},"õ":{"ha":1142,"x_min":0,"x_max":0,"o":"m 28 521 b 571 1064 28 828 271 1064 b 1114 521 871 1064 1114 828 b 571 -22 1114 214 871 -22 b 28 521 271 -22 28 214 z m 201 521 b 571 150 201 311 365 150 b 942 521 776 150 942 311 b 571 893 942 731 776 893 b 201 521 365 893 201 731 z m 669 1090 b 775 1135 711 1090 746 1106 l 775 1278 b 672 1219 754 1250 729 1219 b 471 1282 618 1219 538 1282 b 365 1238 429 1282 394 1267 l 365 1094 b 468 1153 386 1122 411 1153 b 669 1090 521 1153 603 1090 z "},"ö":{"ha":1142,"x_min":0,"x_max":0,"o":"m 28 521 b 571 1064 28 828 271 1064 b 1114 521 871 1064 1114 828 b 571 -22 1114 214 871 -22 b 28 521 271 -22 28 214 z m 201 521 b 571 150 201 311 365 150 b 942 521 776 150 942 311 b 571 893 942 731 776 893 b 201 521 365 893 201 731 z m 526 1300 l 388 1300 l 344 1169 l 457 1089 l 571 1169 z m 753 1300 l 614 1300 l 571 1169 l 683 1089 l 797 1169 z "},"ō":{"ha":1142,"x_min":0,"x_max":0,"o":"m 28 521 b 571 1064 28 828 271 1064 b 1114 521 871 1064 1114 828 b 571 -22 1114 214 871 -22 b 28 521 271 -22 28 214 z m 201 521 b 571 150 201 311 365 150 b 942 521 776 150 942 311 b 571 893 942 731 776 893 b 201 521 365 893 201 731 z m 365 1126 l 775 1126 l 775 1258 l 365 1258 z "},"ŏ":{"ha":1142,"x_min":0,"x_max":0,"o":"m 28 521 b 571 -22 28 214 271 -22 b 1114 521 871 -22 1114 214 b 571 1064 1114 828 871 1064 b 28 521 271 1064 28 828 z m 201 521 b 571 893 201 731 365 893 b 942 521 776 893 942 731 b 571 150 942 311 776 150 b 201 521 365 150 201 311 z m 571 1214 b 496 1292 528 1214 500 1246 l 360 1292 b 571 1089 364 1165 451 1089 b 783 1292 690 1089 779 1165 l 647 1292 b 571 1214 643 1246 614 1214 z "},"ő":{"ha":1142,"x_min":0,"x_max":0,"o":"m 28 521 b 571 1064 28 828 271 1064 b 1114 521 871 1064 1114 828 b 571 -22 1114 214 871 -22 b 28 521 271 -22 28 214 z m 201 521 b 571 150 201 311 365 150 b 942 521 776 150 942 311 b 571 893 942 731 776 893 b 201 521 365 893 201 731 z m 656 1179 l 656 1338 l 356 1097 l 544 1097 z m 897 1179 l 897 1338 l 592 1097 l 781 1097 z "},"ǿ":{"ha":1142,"x_min":0,"x_max":0,"o":"m 28 521 b 571 1064 28 828 271 1064 b 854 985 675 1064 771 1035 l 918 1064 l 1113 1064 l 971 890 b 1114 521 1060 794 1114 665 b 571 -22 1114 214 871 -22 b 286 56 467 -22 369 6 l 222 -22 l 28 -22 l 169 151 b 28 521 82 247 28 376 z m 571 150 b 942 521 776 150 942 311 b 860 756 942 611 911 692 l 397 192 b 571 150 449 164 508 150 z m 201 521 b 281 288 201 431 231 350 l 743 851 b 571 893 692 878 633 893 b 201 521 365 893 201 731 z m 851 1181 l 851 1346 l 485 1097 l 710 1097 z "},"ŕ":{"ha":867,"x_min":0,"x_max":0,"o":"m 453 435 b 613 251 561 435 601 357 b 649 0 617 214 626 124 l 839 0 b 799 256 814 126 804 204 b 675 514 783 400 735 467 b 785 739 739 567 785 643 b 453 1042 785 926 631 1042 l 28 1042 l 28 0 l 211 0 l 211 435 z m 601 739 b 457 608 601 653 536 608 l 211 608 l 211 868 l 457 868 b 601 739 536 868 601 825 z m 617 1181 l 617 1346 l 250 1097 l 475 1097 z "},"ŗ":{"ha":867,"x_min":0,"x_max":0,"o":"m 453 435 b 613 251 561 435 601 357 b 649 0 617 214 626 124 l 839 0 b 799 256 814 126 804 204 b 675 514 783 400 735 467 b 785 739 739 567 785 643 b 453 1042 785 926 631 1042 l 28 1042 l 28 0 l 211 0 l 211 435 z m 601 739 b 457 608 601 653 536 608 l 211 608 l 211 868 l 457 868 b 601 739 536 868 601 825 z m 426 -276 b 363 -329 424 -324 390 -329 l 363 -396 b 511 -276 449 -396 489 -361 l 547 -146 l 433 -62 l 318 -146 l 363 -276 z "},"ř":{"ha":867,"x_min":0,"x_max":0,"o":"m 453 435 b 613 251 561 435 601 357 b 649 0 617 214 626 124 l 839 0 b 799 256 814 126 804 204 b 675 514 783 400 735 467 b 785 739 739 567 785 643 b 453 1042 785 926 631 1042 l 28 1042 l 28 0 l 211 0 l 211 435 z m 601 739 b 457 608 601 653 536 608 l 211 608 l 211 868 l 457 868 b 601 739 536 868 601 825 z m 158 1339 l 158 1186 l 288 1097 l 439 1097 l 568 1186 l 568 1339 l 364 1206 z "},"ś":{"ha":714,"x_min":0,"x_max":0,"o":"m 357 888 b 550 717 446 888 511 794 l 683 844 b 360 1063 632 956 496 1063 b 40 758 172 1063 40 932 b 324 432 40 571 200 494 b 500 279 419 383 500 347 b 361 156 500 199 438 156 b 160 326 272 156 197 247 l 28 199 b 358 -21 79 86 222 -21 b 686 283 551 -21 686 103 b 424 590 686 457 546 531 b 224 760 321 640 224 683 b 357 888 224 839 282 888 z m 624 1181 l 624 1346 l 257 1097 l 482 1097 z "},"ŝ":{"ha":714,"x_min":0,"x_max":0,"o":"m 357 888 b 550 717 446 888 511 794 l 683 844 b 360 1063 632 956 496 1063 b 40 758 172 1063 40 932 b 324 432 40 571 200 494 b 500 279 419 383 500 347 b 361 156 500 199 438 156 b 160 326 272 156 197 247 l 28 199 b 358 -21 79 86 222 -21 b 686 283 551 -21 686 103 b 424 590 686 457 546 531 b 224 760 321 640 224 683 b 357 888 224 839 282 888 z m 357 1201 l 561 1068 l 561 1221 l 432 1310 l 281 1310 l 151 1221 l 151 1068 z "},"š":{"ha":714,"x_min":0,"x_max":0,"o":"m 357 888 b 550 717 446 888 511 794 l 683 844 b 360 1063 632 956 496 1063 b 40 758 172 1063 40 932 b 324 432 40 571 200 494 b 500 279 419 383 500 347 b 361 156 500 199 438 156 b 160 326 272 156 197 247 l 28 199 b 358 -21 79 86 222 -21 b 686 283 551 -21 686 103 b 424 590 686 457 546 531 b 224 760 321 640 224 683 b 357 888 224 839 282 888 z m 151 1339 l 151 1186 l 281 1097 l 432 1097 l 561 1186 l 561 1339 l 357 1206 z "},"ş":{"ha":714,"x_min":0,"x_max":0,"o":"m 221 -299 b 351 -328 250 -315 300 -328 b 521 -174 438 -328 521 -276 b 422 -47 521 -101 469 -58 l 422 -15 b 686 283 581 8 686 124 b 424 590 686 457 546 531 b 224 760 321 640 224 683 b 357 888 224 839 282 888 b 550 717 446 888 511 794 l 683 844 b 360 1063 632 956 496 1063 b 40 758 172 1063 40 932 b 324 432 40 571 200 494 b 500 279 419 383 500 347 b 361 156 500 199 438 156 b 160 326 272 156 197 247 l 28 199 b 290 -12 71 104 176 14 l 290 -128 b 381 -165 353 -121 381 -137 b 336 -201 381 -189 361 -201 b 260 -171 294 -201 260 -171 z "},"ș":{"ha":714,"x_min":0,"x_max":0,"o":"m 357 888 b 550 717 446 888 511 794 l 683 844 b 360 1063 632 956 496 1063 b 40 758 172 1063 40 932 b 324 432 40 571 200 494 b 500 279 419 383 500 347 b 361 156 500 199 438 156 b 160 326 272 156 197 247 l 28 199 b 358 -21 79 86 222 -21 b 686 283 551 -21 686 103 b 424 590 686 457 546 531 b 224 760 321 640 224 683 b 357 888 224 839 282 888 z m 350 -276 b 286 -329 347 -324 314 -329 l 286 -396 b 435 -276 372 -396 413 -361 l 471 -146 l 357 -62 l 242 -146 l 286 -276 z "},"ť":{"ha":789,"x_min":0,"x_max":0,"o":"m 28 868 l 303 868 l 303 0 l 486 0 l 486 868 l 761 868 l 761 1042 l 28 1042 z m 188 1339 l 188 1186 l 317 1097 l 468 1097 l 597 1186 l 597 1339 l 393 1206 z "},"ţ":{"ha":789,"x_min":0,"x_max":0,"o":"m 261 -299 b 392 -328 290 -315 340 -328 b 561 -174 478 -328 561 -276 b 463 -47 561 -101 510 -58 l 463 0 l 486 0 l 486 868 l 761 868 l 761 1042 l 28 1042 l 28 868 l 303 868 l 303 0 l 331 0 l 331 -128 b 421 -165 393 -121 421 -137 b 376 -201 421 -189 401 -201 b 300 -171 335 -201 300 -171 z "},"ț":{"ha":789,"x_min":0,"x_max":0,"o":"m 28 868 l 303 868 l 303 0 l 486 0 l 486 868 l 761 868 l 761 1042 l 28 1042 z m 388 -276 b 324 -329 385 -324 351 -329 l 324 -396 b 472 -276 410 -396 450 -361 l 508 -146 l 394 -62 l 279 -146 l 324 -276 z "},"ŧ":{"ha":789,"x_min":0,"x_max":0,"o":"m 28 868 l 303 868 l 303 608 l 154 608 l 154 435 l 303 435 l 303 0 l 486 0 l 486 435 l 633 435 l 633 608 l 486 608 l 486 868 l 761 868 l 761 1042 l 28 1042 z "},"ù":{"ha":789,"x_min":0,"x_max":0,"o":"m 761 1042 l 578 1042 l 578 329 b 394 149 578 222 500 149 b 211 329 289 149 211 222 l 211 1042 l 28 1042 l 28 332 b 394 -22 28 122 192 -22 b 761 332 597 -22 761 122 z m 325 1097 l 550 1097 l 183 1346 l 183 1181 z "},"ú":{"ha":789,"x_min":0,"x_max":0,"o":"m 761 332 b 394 -22 761 122 597 -22 b 28 332 192 -22 28 122 l 28 1042 l 211 1042 l 211 329 b 394 149 211 222 289 149 b 578 329 500 149 578 222 l 578 1042 l 761 1042 z m 619 1181 l 619 1346 l 253 1097 l 478 1097 z "},"û":{"ha":789,"x_min":0,"x_max":0,"o":"m 761 1042 l 578 1042 l 578 329 b 394 149 578 222 500 149 b 211 329 289 149 211 222 l 211 1042 l 28 1042 l 28 332 b 394 -22 28 122 192 -22 b 761 332 597 -22 761 122 z m 394 1201 l 599 1068 l 599 1221 l 469 1310 l 318 1310 l 189 1221 l 189 1068 z "},"ũ":{"ha":789,"x_min":0,"x_max":0,"o":"m 761 332 b 394 -22 761 122 597 -22 b 28 332 192 -22 28 122 l 28 1042 l 211 1042 l 211 329 b 394 149 211 222 289 149 b 578 329 500 149 578 222 l 578 1042 l 761 1042 z m 493 1090 b 599 1135 535 1090 569 1106 l 599 1278 b 496 1219 578 1250 553 1219 b 294 1282 442 1219 361 1282 b 189 1238 253 1282 218 1267 l 189 1094 b 292 1153 210 1122 235 1153 b 493 1090 344 1153 426 1090 z "},"ü":{"ha":789,"x_min":0,"x_max":0,"o":"m 761 332 b 394 -22 761 122 597 -22 b 28 332 192 -22 28 122 l 28 1042 l 211 1042 l 211 329 b 394 149 211 222 289 149 b 578 329 500 149 578 222 l 578 1042 l 761 1042 z m 576 1300 l 438 1300 l 394 1169 l 507 1089 l 621 1169 z m 350 1300 l 211 1300 l 168 1169 l 281 1089 l 394 1169 z "},"ū":{"ha":789,"x_min":0,"x_max":0,"o":"m 761 332 b 394 -22 761 122 597 -22 b 28 332 192 -22 28 122 l 28 1042 l 211 1042 l 211 329 b 394 149 211 222 289 149 b 578 329 500 149 578 222 l 578 1042 l 761 1042 z m 189 1126 l 599 1126 l 599 1258 l 189 1258 z "},"ŭ":{"ha":789,"x_min":0,"x_max":0,"o":"m 761 1042 l 578 1042 l 578 329 b 394 149 578 222 500 149 b 211 329 289 149 211 222 l 211 1042 l 28 1042 l 28 332 b 394 -22 28 122 192 -22 b 761 332 597 -22 761 122 z m 393 1214 b 318 1292 350 1214 322 1246 l 182 1292 b 393 1089 186 1165 274 1089 b 606 1292 513 1089 601 1165 l 469 1292 b 393 1214 465 1246 436 1214 z "},"ů":{"ha":789,"x_min":0,"x_max":0,"o":"m 761 1042 l 578 1042 l 578 329 b 394 149 578 222 500 149 b 211 329 289 149 211 222 l 211 1042 l 28 1042 l 28 332 b 394 -22 28 122 192 -22 b 761 332 597 -22 761 122 z m 240 1200 b 394 1046 240 1115 310 1046 b 549 1200 479 1046 549 1115 b 394 1354 549 1285 479 1354 b 240 1200 310 1354 240 1285 z m 340 1200 b 394 1254 340 1231 364 1254 b 449 1200 425 1254 449 1231 b 394 1146 449 1169 425 1146 b 340 1200 364 1146 340 1169 z "},"ű":{"ha":789,"x_min":0,"x_max":0,"o":"m 761 332 b 394 -22 761 122 597 -22 b 28 332 192 -22 28 122 l 28 1042 l 211 1042 l 211 329 b 394 149 211 222 289 149 b 578 329 500 149 578 222 l 578 1042 l 761 1042 z m 465 1179 l 465 1338 l 165 1097 l 354 1097 z m 707 1179 l 707 1338 l 401 1097 l 590 1097 z "},"ų":{"ha":789,"x_min":0,"x_max":0,"o":"m 664 -151 b 615 -175 647 -165 632 -175 b 588 -146 597 -175 588 -164 l 588 28 b 761 332 692 88 761 196 l 761 1042 l 578 1042 l 578 329 b 394 149 578 222 500 149 b 211 329 289 149 211 222 l 211 1042 l 28 1042 l 28 332 b 394 -22 28 122 192 -22 b 443 -19 411 -22 426 -21 l 443 -165 b 599 -321 443 -267 499 -321 b 733 -271 650 -321 694 -303 z "},"ẁ":{"ha":1379,"x_min":0,"x_max":0,"o":"m 1351 1042 l 1153 1042 l 858 279 l 799 608 l 581 608 l 521 279 l 226 1042 l 28 1042 l 449 0 l 632 0 l 689 288 l 747 0 l 931 0 z m 619 1097 l 844 1097 l 478 1346 l 478 1181 z "},"ẃ":{"ha":1379,"x_min":0,"x_max":0,"o":"m 931 0 l 747 0 l 689 288 l 632 0 l 449 0 l 28 1042 l 226 1042 l 521 279 l 581 608 l 799 608 l 858 279 l 1153 1042 l 1351 1042 z m 900 1181 l 900 1346 l 533 1097 l 758 1097 z "},"ŵ":{"ha":1379,"x_min":0,"x_max":0,"o":"m 1351 1042 l 1153 1042 l 858 279 l 799 608 l 581 608 l 521 279 l 226 1042 l 28 1042 l 449 0 l 632 0 l 689 288 l 747 0 l 931 0 z m 690 1201 l 894 1068 l 894 1221 l 765 1310 l 614 1310 l 485 1221 l 485 1068 z "},"ẅ":{"ha":1379,"x_min":0,"x_max":0,"o":"m 931 0 l 747 0 l 689 288 l 632 0 l 449 0 l 28 1042 l 226 1042 l 521 279 l 581 608 l 799 608 l 858 279 l 1153 1042 l 1351 1042 z m 871 1300 l 732 1300 l 689 1169 l 801 1089 l 915 1169 z m 644 1300 l 506 1300 l 463 1169 l 575 1089 l 689 1169 z "},"ỳ":{"ha":751,"x_min":0,"x_max":0,"o":"m 275 435 l 89 0 l 281 0 l 724 1042 l 524 1042 l 369 649 l 224 1042 l 28 1042 z m 264 1097 l 489 1097 l 122 1346 l 122 1181 z "},"ý":{"ha":751,"x_min":0,"x_max":0,"o":"m 275 435 l 89 0 l 281 0 l 724 1042 l 524 1042 l 369 649 l 224 1042 l 28 1042 z m 628 1181 l 628 1346 l 261 1097 l 486 1097 z "},"ŷ":{"ha":751,"x_min":0,"x_max":0,"o":"m 275 435 l 89 0 l 281 0 l 724 1042 l 524 1042 l 369 649 l 224 1042 l 28 1042 z m 376 1201 l 581 1068 l 581 1221 l 451 1310 l 300 1310 l 171 1221 l 171 1068 z "},"ÿ":{"ha":751,"x_min":0,"x_max":0,"o":"m 275 435 l 89 0 l 281 0 l 724 1042 l 524 1042 l 369 649 l 224 1042 l 28 1042 z m 557 1300 l 418 1300 l 375 1169 l 488 1089 l 601 1169 z m 331 1300 l 192 1300 l 149 1169 l 261 1089 l 375 1169 z "},"ź":{"ha":690,"x_min":0,"x_max":0,"o":"m 28 0 l 28 174 l 464 868 l 36 868 l 36 1042 l 663 1042 l 663 868 l 224 174 l 663 174 l 663 0 z m 569 1181 l 569 1346 l 203 1097 l 428 1097 z "},"ž":{"ha":690,"x_min":0,"x_max":0,"o":"m 663 0 l 663 174 l 224 174 l 663 868 l 663 1042 l 36 1042 l 36 868 l 464 868 l 28 174 l 28 0 z m 171 1339 l 171 1186 l 300 1097 l 451 1097 l 581 1186 l 581 1339 l 376 1206 z "},"ż":{"ha":690,"x_min":0,"x_max":0,"o":"m 28 0 l 28 174 l 464 868 l 36 868 l 36 1042 l 663 1042 l 663 868 l 224 174 l 663 174 l 663 0 z m 414 1300 l 275 1300 l 232 1169 l 344 1089 l 458 1169 z "},"Ĳ":{"ha":858,"x_min":0,"x_max":0,"o":"m 501 435 l 501 608 l 363 608 l 363 869 l 503 869 l 503 1043 l 28 1043 l 28 869 l 179 869 l 179 608 l 28 608 l 28 435 z m 363 301 b 506 156 363 219 422 156 b 647 301 588 156 647 219 l 647 1042 l 831 1043 l 831 301 b 506 -21 831 121 681 -21 b 179 301 331 -21 179 121 l 179 386 l 363 386 z "},"ı":{"ha":789,"x_min":0,"x_max":0,"o":"m 761 0 l 761 174 l 486 174 l 486 868 l 761 868 l 761 1042 l 28 1042 l 28 868 l 303 868 l 303 174 l 28 174 l 28 0 z "},"ﬁ":{"ha":1306,"x_min":0,"x_max":0,"o":"m 400 1042 l 211 1042 l 211 608 l 28 608 l 28 435 l 211 435 l 211 0 l 394 0 l 394 435 l 819 435 l 819 174 l 544 174 l 544 0 l 1278 0 l 1278 174 l 1003 174 l 1003 435 l 1278 435 l 1278 608 l 394 608 l 394 838 l 819 615 l 819 817 z "},"ﬀ":{"ha":1342,"x_min":0,"x_max":0,"o":"m 953 1042 l 764 1042 l 764 608 l 417 608 l 760 1042 l 544 1042 l 200 608 l 28 608 l 28 435 l 211 435 l 211 0 l 394 0 l 394 435 l 764 435 l 764 0 l 947 0 l 947 435 l 1314 435 l 1314 608 l 947 608 l 947 829 l 1189 615 l 1189 831 z "},"ﬂ":{"ha":1340,"x_min":0,"x_max":0,"o":"m 211 435 l 211 0 l 394 0 l 394 435 l 708 435 l 708 608 l 417 608 l 760 1042 l 544 1042 l 200 608 l 28 608 l 28 435 z m 764 0 l 947 0 l 1313 233 l 1313 433 l 947 203 l 947 1042 l 764 1042 z "},"ˇ":{"ha":549,"x_min":0,"x_max":0,"o":"m 69 1339 l 69 1186 l 199 1097 l 350 1097 l 479 1186 l 479 1339 l 275 1206 z "},"ˆ":{"ha":549,"x_min":0,"x_max":0,"o":"m 275 1201 l 479 1068 l 479 1221 l 350 1310 l 199 1310 l 69 1221 l 69 1068 z "},"´":{"ha":506,"x_min":0,"x_max":0,"o":"m 436 1181 l 436 1346 l 69 1097 l 294 1097 z "},"`":{"ha":506,"x_min":0,"x_max":0,"o":"m 211 1097 l 436 1097 l 69 1346 l 69 1181 z "},"¯":{"ha":549,"x_min":0,"x_max":0,"o":"m 69 1126 l 479 1126 l 479 1258 l 69 1258 z "},"˘":{"ha":563,"x_min":0,"x_max":0,"o":"m 281 1214 b 206 1292 238 1214 210 1246 l 69 1292 b 281 1089 74 1165 161 1089 b 493 1292 400 1089 489 1165 l 357 1292 b 281 1214 353 1246 324 1214 z "},"˚":{"ha":447,"x_min":0,"x_max":0,"o":"m 69 1200 b 224 1046 69 1115 139 1046 b 378 1200 308 1046 378 1115 b 224 1354 378 1285 308 1354 b 69 1200 139 1354 69 1285 z m 169 1200 b 224 1254 169 1231 193 1254 b 278 1200 254 1254 278 1231 b 224 1146 278 1169 254 1146 b 169 1200 193 1146 169 1169 z "},"˜":{"ha":549,"x_min":0,"x_max":0,"o":"m 374 1090 b 479 1135 415 1090 450 1106 l 479 1278 b 376 1219 458 1250 433 1219 b 175 1282 322 1219 242 1282 b 69 1238 133 1282 99 1267 l 69 1094 b 172 1153 90 1122 115 1153 b 374 1090 225 1153 307 1090 z "},"˙":{"ha":365,"x_min":0,"x_max":0,"o":"m 251 1300 l 113 1300 l 69 1169 l 182 1089 l 296 1169 z "},"˝":{"ha":681,"x_min":0,"x_max":0,"o":"m 369 1179 l 369 1338 l 69 1097 l 258 1097 z m 611 1179 l 611 1338 l 306 1097 l 494 1097 z "},"¨":{"ha":592,"x_min":0,"x_max":0,"o":"m 251 1300 l 113 1300 l 69 1169 l 182 1089 l 296 1169 z m 478 1300 l 339 1300 l 296 1169 l 408 1089 l 522 1169 z "},"¸":{"ha":439,"x_min":0,"x_max":0,"o":"m 69 -299 b 200 -328 99 -315 149 -328 b 369 -174 286 -328 369 -276 b 271 -47 369 -101 318 -58 l 271 21 l 139 21 l 139 -128 b 229 -165 201 -121 229 -137 b 185 -201 229 -189 210 -201 b 108 -171 143 -201 108 -171 z "},"˛":{"ha":429,"x_min":0,"x_max":0,"o":"m 290 -151 b 242 -175 274 -165 258 -175 b 214 -146 224 -175 214 -164 l 214 36 l 69 36 l 69 -165 b 225 -321 69 -267 125 -321 b 360 -271 276 -321 321 -303 z "},"$":{"ha":450,"x_min":0,"x_max":0,"o":"m 172 838 b 35 664 93 817 35 749 b 206 468 35 551 131 506 b 311 376 263 439 311 417 b 228 301 311 328 274 301 b 107 404 174 301 129 357 l 28 328 b 172 204 51 275 108 225 l 172 121 l 275 121 l 275 200 b 422 378 358 218 422 286 b 265 563 422 482 339 526 b 144 664 203 593 144 618 b 225 740 144 711 181 740 b 340 639 278 740 318 685 l 421 715 b 275 839 396 768 338 819 l 275 921 l 172 921 z "},"¢":{"ha":539,"x_min":0,"x_max":0,"o":"m 301 843 b 28 521 146 818 28 688 b 301 199 28 354 146 222 l 301 121 l 404 121 l 404 197 b 511 236 443 203 479 217 l 457 328 b 404 304 440 317 424 308 l 404 739 b 458 717 424 735 442 726 l 511 806 b 404 843 479 825 443 838 l 404 921 l 301 921 z m 133 521 b 301 739 133 629 200 717 l 301 304 b 133 521 201 326 133 413 z "},"£":{"ha":557,"x_min":0,"x_max":0,"o":"m 529 565 l 529 669 l 425 669 b 219 846 408 763 324 846 b 28 664 115 846 28 768 b 182 471 28 561 94 514 b 257 383 233 446 257 419 b 58 314 257 343 229 303 l 58 208 l 529 208 l 529 313 l 326 313 b 367 399 350 338 365 367 b 240 561 371 483 314 525 b 138 664 178 592 138 618 b 218 740 138 711 174 740 b 336 599 271 740 332 690 l 336 565 z "},"¥":{"ha":561,"x_min":0,"x_max":0,"o":"m 226 471 l 226 311 l 61 311 l 61 208 l 500 208 l 500 311 l 335 311 l 335 471 l 500 471 l 500 572 l 351 572 l 533 833 l 410 833 l 281 638 l 151 833 l 28 833 l 210 572 l 61 572 l 61 471 z "},"€":{"ha":539,"x_min":0,"x_max":0,"o":"m 354 194 b 511 236 411 194 467 208 l 457 328 b 354 299 428 308 393 299 b 181 379 282 299 221 329 l 511 379 l 511 482 l 136 482 b 133 521 133 494 133 507 b 136 563 133 535 135 549 l 511 563 l 511 664 l 181 664 b 354 744 221 713 281 744 b 458 717 393 744 429 736 l 511 806 b 354 847 467 833 411 847 b 28 521 174 847 28 706 b 354 194 28 336 174 194 z "},"#":{"ha":757,"x_min":0,"x_max":0,"o":"m 129 260 l 129 0 l 228 0 l 228 260 l 529 260 l 529 0 l 628 0 l 628 260 l 729 260 l 729 357 l 628 357 l 628 685 l 729 685 l 729 782 l 628 782 l 628 1042 l 529 1042 l 529 782 l 228 782 l 228 1042 l 129 1042 l 129 782 l 28 782 l 28 685 l 129 685 l 129 357 l 28 357 l 28 260 z m 228 685 l 529 685 l 529 357 l 228 357 z "},"%":{"ha":831,"x_min":0,"x_max":0,"o":"m 28 0 l 132 0 l 803 1042 l 699 1042 z m 390 246 b 596 42 390 128 481 42 b 801 246 711 42 801 128 b 596 450 801 364 711 450 b 390 246 481 450 390 364 z m 710 246 b 596 132 710 178 661 132 b 482 246 531 132 482 178 b 596 360 482 314 531 360 b 710 246 661 360 710 314 z m 29 797 b 235 593 29 679 119 593 b 440 797 350 593 440 679 b 235 1001 440 915 350 1001 b 29 797 119 1001 29 915 z m 349 797 b 235 683 349 729 300 683 b 121 797 169 683 121 729 b 235 911 121 865 169 911 b 349 797 300 911 349 865 z "},"‰":{"ha":921,"x_min":0,"x_max":0,"o":"m 893 390 b 688 596 893 504 801 596 b 483 418 583 596 497 518 b 390 246 428 382 390 318 b 596 40 390 132 482 40 b 800 218 700 40 786 118 b 893 390 856 254 893 318 z m 29 797 b 235 593 29 679 119 593 b 440 797 350 593 440 679 b 235 1001 440 915 350 1001 b 29 797 119 1001 29 915 z m 28 0 l 132 0 l 803 1042 l 699 1042 z m 349 797 b 235 683 349 729 300 683 b 121 797 169 683 121 729 b 235 911 121 865 169 911 b 349 797 300 911 349 865 z m 479 246 b 499 308 479 269 486 290 b 688 186 529 236 603 186 l 697 186 b 596 129 678 151 640 129 b 479 246 529 129 479 182 z m 804 390 b 785 325 804 365 797 343 b 596 451 754 399 681 451 l 588 451 b 688 507 607 485 644 507 b 804 390 754 507 804 454 z m 596 361 b 708 276 649 361 694 325 b 688 275 701 275 694 275 b 575 360 633 275 589 310 b 596 361 582 361 589 361 z "},"⁄":{"ha":831,"x_min":0,"x_max":0,"o":"m 28 0 l 128 0 l 803 1042 l 703 1042 z "},"^":{"ha":757,"x_min":0,"x_max":0,"o":"m 308 1042 l 28 340 l 215 340 l 381 800 l 546 340 l 729 340 l 453 1042 z "},"~":{"ha":757,"x_min":0,"x_max":0,"o":"m 536 381 b 729 464 615 381 676 411 l 729 651 b 542 543 690 603 644 543 b 219 660 444 543 343 660 b 28 575 140 660 81 629 l 28 390 b 221 496 67 439 118 496 b 536 381 318 496 413 381 z "},"·":{"ha":338,"x_min":0,"x_max":0,"o":"m 310 426 l 168 528 l 28 426 l 81 264 l 256 264 z "},"+":{"ha":757,"x_min":0,"x_max":0,"o":"m 465 171 l 465 435 l 729 435 l 729 608 l 465 608 l 465 872 l 292 872 l 292 608 l 28 608 l 28 435 l 292 435 l 292 171 z "},"±":{"ha":757,"x_min":0,"x_max":0,"o":"m 465 340 l 465 604 l 729 604 l 729 778 l 465 778 l 465 1042 l 292 1042 l 292 778 l 28 778 l 28 604 l 292 604 l 292 340 z m 28 0 l 729 0 l 729 174 l 28 174 z "},"<":{"ha":757,"x_min":0,"x_max":0,"o":"m 28 449 l 729 171 l 729 357 l 269 521 l 729 685 l 729 872 l 28 593 z "},"=":{"ha":757,"x_min":0,"x_max":0,"o":"m 28 261 l 729 261 l 729 435 l 28 435 z m 28 608 l 729 608 l 729 782 l 28 782 z "},">":{"ha":757,"x_min":0,"x_max":0,"o":"m 729 593 l 28 872 l 28 685 l 488 521 l 28 357 l 28 171 l 729 449 z "},"|":{"ha":156,"x_min":0,"x_max":0,"o":"m 128 1042 l 28 1042 l 28 0 l 128 0 z "},"¦":{"ha":156,"x_min":0,"x_max":0,"o":"m 128 1042 l 28 1042 l 28 631 l 128 631 z m 128 411 l 28 411 l 28 0 l 128 0 z "},"×":{"ha":757,"x_min":0,"x_max":0,"o":"m 500 521 l 729 750 l 607 872 l 378 643 l 150 872 l 28 750 l 256 521 l 28 293 l 150 171 l 378 399 l 607 171 l 729 293 z "},"÷":{"ha":757,"x_min":0,"x_max":0,"o":"m 290 872 l 238 710 l 378 608 l 28 608 l 28 435 l 378 435 l 238 333 l 290 171 l 465 171 l 519 333 l 378 435 l 729 435 l 729 608 l 378 608 l 519 710 l 465 872 z "},"−":{"ha":757,"x_min":0,"x_max":0,"o":"m 28 435 l 729 435 l 729 608 l 28 608 z "},"≈":{"ha":757,"x_min":0,"x_max":0,"o":"m 536 554 b 729 638 615 554 676 585 l 729 825 b 542 717 690 776 644 717 b 219 833 444 717 343 833 b 28 749 140 833 81 803 l 28 564 b 221 669 67 613 118 669 b 536 554 318 669 413 554 z m 536 207 b 729 290 615 207 676 238 l 729 478 b 542 369 690 429 644 369 b 219 486 444 369 343 486 b 28 401 140 486 81 456 l 28 217 b 221 322 67 265 118 322 b 536 207 318 322 413 207 z "},"≠":{"ha":757,"x_min":0,"x_max":0,"o":"m 28 261 l 147 261 l 106 185 l 286 185 l 328 261 l 729 261 l 729 435 l 422 435 l 517 608 l 729 608 l 729 782 l 610 782 l 651 857 l 471 857 l 429 782 l 28 782 l 28 608 l 336 608 l 242 435 l 28 435 z "},"≤":{"ha":757,"x_min":0,"x_max":0,"o":"m 28 0 l 729 0 l 729 174 l 28 174 z m 28 618 l 729 343 l 729 526 l 269 690 l 729 854 l 729 1042 l 28 763 z "},"≥":{"ha":757,"x_min":0,"x_max":0,"o":"m 729 174 l 28 174 l 28 0 l 729 0 z m 729 763 l 28 1042 l 28 854 l 488 690 l 28 526 l 28 343 l 729 618 z "},"¬":{"ha":757,"x_min":0,"x_max":0,"o":"m 729 0 l 729 608 l 28 608 l 28 435 l 556 435 l 556 0 z "},"°":{"ha":467,"x_min":0,"x_max":0,"o":"m 28 836 b 233 631 28 722 119 631 b 439 836 347 631 439 722 b 233 1042 439 950 347 1042 b 28 836 119 1042 28 950 z m 349 836 b 233 721 349 772 297 721 b 118 836 169 721 118 772 b 233 951 118 900 169 951 b 349 836 297 951 349 900 z "},"_":{"ha":757,"x_min":0,"x_max":0,"o":"m 729 -100 l 729 0 l 28 0 l 28 -100 z "},"-":{"ha":479,"x_min":0,"x_max":0,"o":"m 28 435 l 451 435 l 451 608 l 28 608 z "},"—":{"ha":1458,"x_min":0,"x_max":0,"o":"m 1431 435 l 1431 608 l 28 608 l 28 435 z "},"–":{"ha":757,"x_min":0,"x_max":0,"o":"m 28 435 l 729 435 l 729 608 l 28 608 z "},"'":{"ha":264,"x_min":0,"x_max":0,"o":"m 182 631 l 236 1042 l 28 1042 l 82 631 z "},"\"":{"ha":474,"x_min":0,"x_max":0,"o":"m 182 631 l 236 1042 l 28 1042 l 82 631 z m 392 631 l 446 1042 l 238 1042 l 292 631 z "},"«":{"ha":632,"x_min":0,"x_max":0,"o":"m 378 643 l 378 399 l 604 174 l 604 399 l 478 521 l 604 643 l 604 868 z m 28 521 l 378 174 l 378 399 l 250 521 l 378 643 l 378 868 z "},"‹":{"ha":404,"x_min":0,"x_max":0,"o":"m 28 521 l 376 174 l 376 399 l 250 521 l 376 643 l 376 868 z "},"›":{"ha":404,"x_min":0,"x_max":0,"o":"m 28 868 l 28 643 l 154 521 l 28 399 l 28 174 l 376 521 z "},"»":{"ha":632,"x_min":0,"x_max":0,"o":"m 28 868 l 28 643 l 154 521 l 28 399 l 28 174 l 254 399 l 254 174 l 604 521 l 254 868 l 254 643 l 382 521 l 254 399 l 254 643 z "},"‚":{"ha":338,"x_min":0,"x_max":0,"o":"m 176 0 b 72 -74 172 -60 108 -74 l 72 -147 b 265 0 175 -143 229 -107 b 310 163 290 75 310 163 l 169 264 l 28 163 l 82 0 z "},"„":{"ha":619,"x_min":0,"x_max":0,"o":"m 176 0 b 72 -74 172 -60 108 -74 l 72 -147 b 265 0 175 -143 229 -107 b 310 163 290 75 310 163 l 169 264 l 28 163 l 82 0 z m 458 0 b 354 -74 454 -60 390 -74 l 354 -147 b 547 0 457 -143 511 -107 b 592 163 572 75 592 163 l 451 264 l 310 163 l 364 0 z "},"“":{"ha":619,"x_min":0,"x_max":0,"o":"m 443 894 b 547 968 447 954 511 968 l 547 1042 b 354 894 444 1038 390 1001 b 310 732 329 819 310 732 l 450 631 l 592 732 l 538 894 z m 161 894 b 265 968 165 954 229 968 l 265 1042 b 72 894 163 1038 108 1001 b 28 732 47 819 28 732 l 168 631 l 310 732 l 256 894 z "},"”":{"ha":619,"x_min":0,"x_max":0,"o":"m 176 778 b 72 704 172 718 108 704 l 72 631 b 265 778 175 635 229 671 b 310 940 290 853 310 940 l 169 1042 l 28 940 l 82 778 z m 458 778 b 354 704 454 718 390 704 l 354 631 b 547 778 457 635 511 671 b 592 940 572 853 592 940 l 451 1042 l 310 940 l 364 778 z "},"‘":{"ha":338,"x_min":0,"x_max":0,"o":"m 161 894 b 265 968 165 954 229 968 l 265 1042 b 72 894 163 1038 108 1001 b 28 732 47 819 28 732 l 168 631 l 310 732 l 256 894 z "},"’":{"ha":338,"x_min":0,"x_max":0,"o":"m 176 778 b 72 704 172 718 108 704 l 72 631 b 265 778 175 635 229 671 b 310 940 290 853 310 940 l 169 1042 l 28 940 l 82 778 z "},",":{"ha":338,"x_min":0,"x_max":0,"o":"m 176 0 b 72 -74 172 -60 108 -74 l 72 -147 b 265 0 175 -143 229 -107 b 310 163 290 75 310 163 l 169 264 l 28 163 l 82 0 z "},".":{"ha":338,"x_min":0,"x_max":0,"o":"m 256 264 l 81 264 l 28 101 l 168 0 l 310 101 z "},":":{"ha":338,"x_min":0,"x_max":0,"o":"m 256 0 l 81 0 l 28 163 l 168 264 l 310 163 z m 256 790 l 81 790 l 28 628 l 168 526 l 310 628 z "},";":{"ha":338,"x_min":0,"x_max":0,"o":"m 176 0 b 72 -74 172 -60 108 -74 l 72 -147 b 265 0 175 -143 229 -107 b 310 163 290 75 310 163 l 169 264 l 28 163 l 82 0 z m 256 790 l 81 790 l 28 628 l 168 526 l 310 628 z "},"…":{"ha":901,"x_min":0,"x_max":0,"o":"m 310 163 l 168 264 l 28 163 l 81 0 l 256 0 z m 874 163 l 732 264 l 592 163 l 644 0 l 819 0 z m 592 163 l 450 264 l 310 163 l 363 0 l 538 0 z "},"?":{"ha":688,"x_min":0,"x_max":0,"o":"m 344 1064 b 28 754 171 1064 28 922 l 203 754 b 343 883 203 828 269 883 b 483 753 422 883 483 832 b 303 599 483 651 385 607 b 129 440 197 588 128 525 b 253 264 129 385 161 322 b 226 332 235 286 226 310 b 333 433 226 390 271 426 b 660 753 514 453 660 556 b 344 1064 660 928 525 1064 z m 340 0 l 165 0 l 113 163 l 253 264 l 394 165 z "},"¿":{"ha":688,"x_min":0,"x_max":0,"o":"m 343 -22 b 660 288 517 -22 660 119 l 485 288 b 344 158 485 214 418 158 b 204 289 265 158 204 210 b 385 443 204 390 303 435 b 558 601 490 454 560 517 b 435 778 558 657 526 719 b 461 710 453 756 461 732 b 354 608 461 651 417 615 b 28 289 174 589 28 486 b 343 -22 28 114 163 -22 z m 293 876 l 435 778 l 575 879 l 522 1042 l 347 1042 z "},"!":{"ha":338,"x_min":0,"x_max":0,"o":"m 310 165 l 174 260 l 272 1042 l 64 1042 l 163 260 l 28 163 l 81 0 l 256 0 z "},"¡":{"ha":338,"x_min":0,"x_max":0,"o":"m 256 1042 l 81 1042 l 28 879 l 163 782 l 64 0 l 272 0 l 174 782 l 310 876 z "},"(":{"ha":306,"x_min":0,"x_max":0,"o":"m 28 521 b 278 -22 28 299 136 99 l 278 117 b 128 521 194 213 128 356 b 278 925 128 686 194 829 l 278 1064 b 28 521 136 943 28 743 z "},")":{"ha":306,"x_min":0,"x_max":0,"o":"m 278 521 b 28 1064 278 743 169 943 l 28 925 b 178 521 111 829 178 686 b 28 117 178 356 111 213 l 28 -22 b 278 521 169 99 278 299 z "},"[":{"ha":306,"x_min":0,"x_max":0,"o":"m 278 0 l 278 96 l 128 96 l 128 946 l 278 946 l 278 1042 l 28 1042 l 28 0 z "},"]":{"ha":306,"x_min":0,"x_max":0,"o":"m 278 0 l 278 1042 l 28 1042 l 28 946 l 178 946 l 178 96 l 28 96 l 28 0 z "},"{":{"ha":326,"x_min":0,"x_max":0,"o":"m 28 471 b 165 157 150 439 189 315 b 199 -22 154 83 175 1 l 299 -22 b 268 157 272 4 263 101 b 115 521 286 342 246 479 b 268 885 246 563 286 700 b 299 1064 263 940 272 1038 l 199 1064 b 165 885 175 1040 154 958 b 28 571 189 726 150 603 z "},"}":{"ha":326,"x_min":0,"x_max":0,"o":"m 299 571 b 161 885 176 603 138 726 b 128 1064 172 958 151 1040 l 28 1064 b 58 885 54 1038 64 940 b 211 521 40 700 81 563 b 58 157 81 479 40 342 b 28 -22 64 101 54 4 l 128 -22 b 161 157 151 1 172 83 b 299 471 138 315 176 439 z "},"/":{"ha":597,"x_min":0,"x_max":0,"o":"m 28 0 l 128 0 l 569 1042 l 469 1042 z "},"\\":{"ha":597,"x_min":0,"x_max":0,"o":"m 128 1042 l 28 1042 l 469 0 l 569 0 z "},"*":{"ha":764,"x_min":0,"x_max":0,"o":"m 736 738 l 736 882 l 451 790 l 451 1042 l 313 1042 l 313 790 l 28 882 l 28 738 l 271 658 l 90 413 l 264 413 l 382 579 l 500 413 l 674 413 l 493 658 z "},"•":{"ha":796,"x_min":0,"x_max":0,"o":"m 28 521 b 397 150 28 311 192 150 b 768 521 603 150 768 311 b 397 893 768 731 603 893 b 28 521 192 893 28 731 z "},"&":{"ha":913,"x_min":0,"x_max":0,"o":"m 419 608 l 419 442 l 550 442 b 496 301 508 418 496 361 b 353 154 496 219 435 154 b 210 300 271 154 210 218 b 353 442 210 382 268 442 l 361 442 l 361 608 l 353 608 b 219 754 276 608 219 681 b 353 892 219 828 279 892 b 482 794 414 892 465 849 l 613 924 b 353 1064 557 1008 460 1064 b 43 754 171 1064 43 928 b 138 532 43 665 81 588 b 28 300 71 475 28 396 b 353 -22 28 119 163 -22 b 678 300 538 -22 678 119 b 813 436 678 390 736 436 l 885 436 l 885 608 z "},"†":{"ha":757,"x_min":0,"x_max":0,"o":"m 28 707 l 28 607 l 329 607 l 329 0 l 429 0 l 429 607 l 729 607 l 729 707 l 429 707 l 429 1042 l 329 1042 l 329 707 z "},"‡":{"ha":757,"x_min":0,"x_max":0,"o":"m 329 335 l 329 0 l 429 0 l 429 335 l 729 335 l 729 435 l 429 435 l 429 607 l 729 607 l 729 707 l 429 707 l 429 1042 l 329 1042 l 329 707 l 28 707 l 28 607 l 329 607 l 329 435 l 28 435 l 28 335 z "},"¶":{"ha":740,"x_min":0,"x_max":0,"o":"m 368 476 l 368 -139 l 551 -139 l 551 867 l 713 867 l 713 1042 l 310 1042 b 28 760 147 1042 28 915 b 310 476 28 604 147 476 z "},"©":{"ha":1142,"x_min":0,"x_max":0,"o":"m 28 521 b 571 -22 28 214 271 -22 b 1114 521 871 -22 1114 214 b 571 1064 1114 828 871 1064 b 28 521 271 1064 28 828 z m 128 521 b 571 967 128 772 324 967 b 1015 521 817 967 1015 772 b 571 75 1015 269 817 75 b 128 521 324 75 128 269 z m 579 299 b 358 521 453 299 358 394 b 579 744 358 647 453 744 b 764 638 663 744 726 703 l 840 714 b 579 847 781 796 688 847 b 253 521 399 847 253 706 b 579 194 253 336 399 194 b 840 328 686 194 781 247 l 764 404 b 579 299 726 339 663 299 z "},"®":{"ha":1142,"x_min":0,"x_max":0,"o":"m 28 521 b 571 -22 28 214 271 -22 b 1114 521 871 -22 1114 214 b 571 1064 1114 828 871 1064 b 28 521 271 1064 28 828 z m 128 521 b 571 967 128 772 324 967 b 1015 521 817 967 1015 772 b 571 75 1015 269 817 75 b 128 521 324 75 128 269 z m 603 469 b 699 360 668 469 693 422 b 721 208 701 336 707 282 l 835 208 b 811 361 819 285 814 331 b 736 517 801 449 772 489 b 803 651 775 549 803 594 b 603 833 803 764 710 833 l 349 833 l 349 208 l 458 208 l 458 469 z m 693 651 b 606 574 693 600 653 574 l 458 574 l 458 729 l 606 729 b 693 651 653 729 693 703 z "},"™":{"ha":1042,"x_min":0,"x_max":0,"o":"m 28 939 l 193 939 l 193 418 l 303 418 l 303 939 l 468 939 l 468 1043 l 28 1043 z m 679 1043 l 501 1043 l 501 418 l 608 418 l 608 878 l 711 418 l 804 418 l 907 878 l 907 418 l 1014 418 l 1014 1043 l 836 1043 l 757 663 z "},"@":{"ha":1010,"x_min":0,"x_max":0,"o":"m 567 -22 b 903 81 686 -24 813 15 l 865 181 b 567 74 788 113 679 74 b 128 518 303 74 128 253 b 569 968 128 783 306 968 b 883 693 746 968 883 850 b 758 479 883 590 835 519 l 632 831 l 517 831 l 296 210 l 404 210 l 453 353 b 571 336 490 343 531 336 b 699 350 615 336 658 340 l 749 210 l 857 210 l 793 383 b 983 693 906 439 983 542 b 569 1064 983 917 788 1064 b 28 518 260 1064 28 839 b 567 -22 28 196 260 -19 z m 574 706 l 665 446 b 571 438 635 440 604 438 b 485 449 540 438 513 442 z "}}}
